<svg width="38" height="27" viewBox="0 0 38 27" fill="none" xmlns="http://www.w3.org/2000/svg">
<path fill-rule="evenodd" clip-rule="evenodd" d="M37.3333 11.0833H0.666664V21.4445C0.666664 22.7411 1.18174 23.9846 2.09858 24.9014C3.01543 25.8183 4.25894 26.3334 5.55555 26.3334H32.4444C33.7411 26.3334 34.9846 25.8183 35.9014 24.9014C36.8183 23.9846 37.3333 22.7411 37.3333 21.4445V11.0833ZM37.3333 5.55553V8.58329H0.666664V5.55553C0.666664 4.25891 1.18174 3.01547 2.09858 2.09862C3.01543 1.18178 4.25894 0.666626 5.55555 0.666626H32.4444C33.7411 0.666626 34.9846 1.18178 35.9014 2.09862C36.8183 3.01547 37.3333 4.25891 37.3333 5.55553ZM20.8333 15.9166C20.143 15.9166 19.5833 16.4763 19.5833 17.1666C19.5833 17.857 20.143 18.4166 20.8333 18.4166H31.8333C32.5237 18.4166 33.0833 17.857 33.0833 17.1666C33.0833 16.4763 32.5237 15.9166 31.8333 15.9166H20.8333Z" fill="#008BF4"/>
</svg>
