<svg width="24" height="25" viewBox="0 0 24 25" fill="none" xmlns="http://www.w3.org/2000/svg">
<path fill-rule="evenodd" clip-rule="evenodd" d="M7 1.50006C3.68629 1.50006 1 4.18635 1 7.50006L1 17.5001C1 20.8138 3.68629 23.5001 7 23.5001L17 23.5001C20.3137 23.5001 23 20.8138 23 17.5001L23 7.50006C23 4.18635 20.3137 1.50006 17 1.50006L7 1.50006ZM14.2879 6.50088C15.4313 6.69516 16.5249 7.03438 17.5447 7.49479C17.5535 7.49854 17.5611 7.50479 17.5655 7.51354C19.3723 10.1286 20.2647 13.0785 19.9311 16.4744C19.9298 16.4888 19.9223 16.5019 19.9103 16.5107C18.5418 17.4996 17.2161 18.0999 15.9087 18.4979C15.8879 18.5041 15.8652 18.4966 15.8526 18.4791C15.5505 18.0656 15.2762 17.6295 15.0359 17.1716C15.022 17.1447 15.0346 17.1123 15.063 17.1016C15.4988 16.9398 15.9131 16.7462 16.3117 16.5169C16.3433 16.4988 16.3451 16.4544 16.3161 16.4332C16.2316 16.3714 16.1478 16.3064 16.0677 16.2414C16.0525 16.2295 16.0323 16.227 16.0153 16.2352C13.4277 17.4115 10.5929 17.4115 7.97435 16.2352C7.95732 16.2277 7.93714 16.2302 7.92263 16.242C7.84254 16.307 7.75866 16.3714 7.67478 16.4332C7.64577 16.4544 7.64829 16.4988 7.67983 16.5169C8.0784 16.7418 8.49275 16.9398 8.92791 17.1023C8.95629 17.1129 8.96953 17.1447 8.95566 17.1716C8.72042 17.6301 8.44608 18.0662 8.13832 18.4798C8.12507 18.4966 8.103 18.5041 8.08219 18.4979C6.78113 18.0999 5.45547 17.4996 4.08693 16.5107C4.07558 16.5019 4.06738 16.4882 4.06612 16.4738C3.78737 13.5364 4.35559 10.5621 6.42985 7.51291C6.43489 7.50479 6.44246 7.49854 6.45129 7.49479C7.47171 7.03376 8.56528 6.69454 9.70804 6.50088C9.72885 6.49775 9.74966 6.50712 9.76039 6.52524C9.90166 6.77138 10.0631 7.08686 10.1722 7.34486C11.3768 7.1637 12.6003 7.1637 13.8301 7.34486C13.9392 7.09248 14.0949 6.77138 14.2356 6.52524C14.2463 6.5065 14.2671 6.49713 14.2879 6.50088ZM7.90876 13.0985C7.90876 13.9731 8.55834 14.6852 9.34667 14.6852C10.1476 14.6852 10.7846 13.9731 10.7846 13.0985C10.7972 12.2301 10.1539 11.5117 9.34667 11.5117C8.54573 11.5117 7.90876 12.2239 7.90876 13.0985ZM13.2253 13.0985C13.2253 13.9731 13.8748 14.6852 14.6632 14.6852C15.4704 14.6852 16.1011 13.9731 16.1011 13.0985C16.1137 12.2301 15.4704 11.5117 14.6632 11.5117C13.8622 11.5117 13.2253 12.2239 13.2253 13.0985Z" fill="#FCFDFD"/>
</svg>
