<svg width="24" height="24" viewBox="0 0 24 24" fill="none" xmlns="http://www.w3.org/2000/svg">
<path fill-rule="evenodd" clip-rule="evenodd" d="M7 1C3.68629 1 1 3.68629 1 7L1 17C1 20.3137 3.68629 23 7 23L17 23C20.3137 23 23 20.3137 23 17L23 7C23 3.68629 20.3137 1 17 1L7 1ZM14.1206 6.72C14.51 6.72 15.1293 6.78773 15.5879 6.8784L16 4.31733C15.1061 4.136 14.4183 4 13.4786 4C10.7738 4 9.69656 5.26933 9.69656 7.53547L9.69656 9.18987L8 9.18987V11.8645L9.69656 11.8645V20H12.9974V11.8645H15.4039L15.6337 9.18987H12.9974L12.9974 7.89867C12.9974 7.17333 13.0659 6.72 14.1206 6.72Z" fill="#FCFDFD"/>
</svg>
