<svg width="34" height="32" viewBox="0 0 34 32" fill="none" xmlns="http://www.w3.org/2000/svg">
<path fill-rule="evenodd" clip-rule="evenodd" d="M11.5833 0.333374C10.893 0.333374 10.3333 0.893018 10.3333 1.58337C10.3333 2.27373 10.893 2.83337 11.5833 2.83337H22.4167C23.107 2.83337 23.6667 2.27373 23.6667 1.58337C23.6667 0.893018 23.107 0.333374 22.4167 0.333374H11.5833ZM5.33334 5.75004C5.33334 5.05968 5.89298 4.50004 6.58334 4.50004H27.4167C28.107 4.50004 28.6667 5.05968 28.6667 5.75004C28.6667 6.4404 28.107 7.00004 27.4167 7.00004H6.58334C5.89298 7.00004 5.33334 6.4404 5.33334 5.75004ZM0.333336 12C0.333336 10.1591 1.82572 8.66671 3.66667 8.66671H30.3333C32.1743 8.66671 33.6667 10.1591 33.6667 12V28.6667C33.6667 30.5077 32.1743 32 30.3333 32H3.66667C1.82572 32 0.333336 30.5077 0.333336 28.6667V12Z" fill="#008BF4"/>
</svg>
