<svg width="44" height="44" viewBox="0 0 44 44" fill="none" xmlns="http://www.w3.org/2000/svg">
<g clip-path="url(#clip0)">
<path d="M27.4219 1.86056e-05C26.5528 -0.00205942 25.692 0.16995 24.8905 0.505893C24.0889 0.841836 23.3628 1.3349 22.755 1.95598C23.2051 2.3593 23.72 2.8148 24.1856 3.20966C24.8383 2.57298 25.6643 2.14288 26.5604 1.97318C27.4564 1.80348 28.3826 1.90173 29.2231 2.25562C30.0635 2.60952 30.7809 3.20334 31.2854 3.96276C31.7898 4.72218 32.059 5.61347 32.0592 6.52507C32.0645 7.1357 31.9467 7.74115 31.7131 8.30539C31.4795 8.86962 31.1347 9.38112 30.6992 9.80945L21.9918 18.526L14.7967 11.317C14.1021 11.5572 13.3885 11.7388 12.6636 11.8599L21.3273 20.5341C21.5051 20.7118 21.8056 20.9304 21.9974 20.9304C22.1893 20.9304 22.4898 20.7118 22.6676 20.5341L32.0423 11.1463C32.6545 10.5434 33.139 9.82362 33.4672 9.02972C33.7954 8.23581 33.9604 7.38403 33.9525 6.52507C33.9496 4.79494 33.2605 3.13658 32.0363 1.91346C30.8121 0.690343 29.1528 0.00225567 27.4219 1.86056e-05Z" fill="white"/>
<path d="M36.7469 10.4738C35.8637 10.3328 35.0285 10.1466 34.2216 9.93932C33.8884 10.5311 33.4853 11.0808 33.021 11.5766C33.6784 11.7655 34.3514 11.9348 35.0483 12.0814C34.9538 12.2225 34.8592 12.3762 34.7661 12.5214C31.6271 17.4487 29.5222 20.7514 32.6499 27.0677C32.0094 27.787 31.036 28.4864 29.7959 29.1196C28.0155 28.4145 26.41 28.0634 25.0161 28.0634C22.2622 28.0634 20.7498 29.444 20.1474 30.9599C15.4735 30.5369 12.5813 28.1649 11.5274 27.1326C13.6479 23.679 14.1924 20.4496 13.1372 17.5248C12.0085 14.3899 9.20809 12.6667 7.54053 11.9263C7.51372 11.6541 7.47563 11.0915 7.43049 10.7784C8.31183 10.9377 9.20548 11.0194 10.1011 11.0224C14.0951 11.0224 17.9677 9.31178 21.3946 6.0556C20.8969 5.66461 20.4204 5.24754 19.9668 4.80615C16.9125 7.67452 13.6013 9.12986 10.1011 9.13127C8.88786 9.12706 7.68051 8.96204 6.51065 8.64052C6.19463 8.55449 5.66417 8.42616 5.42574 8.65462C5.18732 8.88307 5.26914 9.41754 5.33404 9.73907C5.50836 10.6812 5.6266 11.6329 5.68815 12.5891C5.7079 13.2406 5.76292 13.2858 6.36251 13.4959C7.06791 13.7427 10.2168 15.0048 11.3567 18.1637C12.2597 20.6682 11.6389 23.5422 9.54104 26.7138C9.19116 27.2398 9.20668 27.3343 9.5876 27.8264C9.73855 28.021 13.4348 32.5492 20.7908 32.9032C21.6669 32.9441 21.6203 32.8552 21.7628 32.1332C22.0365 30.7526 23.2089 29.9587 25.0076 29.9587C26.2534 29.9587 27.746 30.3324 29.4629 31.0318C29.8283 31.1813 29.8862 31.1813 30.2361 31.0121C32.2352 30.0602 33.6826 28.949 34.5362 27.7235C34.8437 27.2821 34.8381 27.1947 34.5982 26.7363C31.5777 21.0349 33.1874 18.5261 36.3617 13.5382C36.6919 13.0192 37.0347 12.4777 37.3916 11.908C37.7852 11.2875 37.8473 10.6628 36.7469 10.4738Z" fill="white"/>
<path d="M12.1331 7.90853C11.9174 7.21461 11.8679 6.47976 11.9883 5.76319C12.1088 5.04661 12.396 4.36833 12.8267 3.78301C13.2575 3.19768 13.8197 2.72166 14.4682 2.39331C15.1167 2.06495 15.8333 1.89343 16.5602 1.89257C17.5809 1.89045 18.5734 2.22725 19.3818 2.8501C20.9943 4.15737 21.687 4.9485 22.9412 6.01321C24.7974 7.60849 26.8463 8.96488 29.0401 10.0506C29.3999 9.67129 29.8866 9.1467 30.379 8.58966C28.2007 7.60251 25.839 5.99628 23.909 4.34352C22.8495 3.43393 21.5333 2.2282 21.1284 1.8559C20.113 0.865246 18.8027 0.231885 17.3954 0.0515526C15.9881 -0.12878 14.5603 0.153717 13.3278 0.856345C12.0954 1.55897 11.1252 2.64354 10.564 3.94612C10.0029 5.2487 9.88111 6.69848 10.2172 8.07635C10.8596 8.07838 11.5009 8.02221 12.1331 7.90853Z" fill="white"/>
<path d="M2.765 37.9147H1.89031C1.4191 37.0883 1.20184 36.8317 1.0142 36.8317H0.701005V37.9147H-0.00439453V34.8813H1.68856C2.31073 34.8813 2.51952 35.2692 2.51952 35.7698C2.51952 36.2041 2.33612 36.5835 1.76193 36.6159C1.97213 36.6878 2.20068 36.9614 2.765 37.9147ZM0.701005 36.2563H1.48118C1.63354 36.2563 1.74641 36.1477 1.74641 35.8784C1.74641 35.609 1.64624 35.4779 1.48964 35.4779H0.701005V36.2563Z" fill="white"/>
<path d="M4.88141 37.8545C4.61999 37.9328 4.34876 37.9737 4.07584 37.9757C3.44945 37.9757 2.98389 37.7022 2.98389 36.7883C2.98389 35.8745 3.39302 35.6263 4.03211 35.6263C4.77278 35.6263 5.09444 35.852 5.03378 36.997H3.67377C3.68223 37.3538 3.84447 37.4201 4.16614 37.4201C4.37409 37.417 4.58117 37.3925 4.78407 37.3468L4.88141 37.8545ZM3.63709 35.443L4.17178 34.8789H4.85602L4.20282 35.443H3.63709ZM3.67518 36.5049H4.45817C4.44971 36.196 4.34954 36.1312 4.08854 36.1312C3.82754 36.1312 3.7175 36.2228 3.678 36.5049H3.67518Z" fill="white"/>
<path d="M6.30352 37.9627C5.72791 37.9627 5.40625 37.7188 5.40625 36.8176C5.40625 35.9165 5.74625 35.626 6.50385 35.626C6.84623 35.625 7.18663 35.6778 7.51257 35.7825V37.7371C7.51257 38.6283 6.98634 38.8032 6.28095 38.8032C6.00442 38.8022 5.72975 38.758 5.46691 38.6721L5.58542 38.1503C5.80768 38.2133 6.03724 38.247 6.26825 38.2504C6.62941 38.2504 6.84244 38.1587 6.84244 37.8372C6.67463 37.9193 6.49035 37.9622 6.30352 37.9627ZM6.84244 36.2169C6.73409 36.1767 6.61943 36.1561 6.50385 36.1562C6.18501 36.1562 6.08061 36.2352 6.08061 36.8049C6.08061 37.2745 6.17231 37.4015 6.48551 37.4015C6.68161 37.4015 6.84244 37.3408 6.84244 37.2449V36.2169Z" fill="white"/>
<path d="M8.80062 35.038C8.80062 35.3384 8.7061 35.3906 8.42253 35.3906C8.13896 35.3906 8.04443 35.3384 8.04443 35.038C8.04443 34.7644 8.13472 34.7207 8.42253 34.7207C8.71033 34.7207 8.80062 34.7644 8.80062 35.038ZM8.7583 37.9148H8.08676V35.6867H8.7583V37.9148Z" fill="white"/>
<path d="M9.23633 36.7885C9.23633 35.8789 9.60596 35.6265 10.3156 35.6265C11.0252 35.6265 11.4047 35.8789 11.4047 36.7885C11.4047 37.6981 11.0422 37.9759 10.3156 37.9759C9.58903 37.9759 9.23633 37.7023 9.23633 36.7885ZM9.91069 36.8012C9.91069 37.3653 10.0024 37.4541 10.3156 37.4541C10.6288 37.4541 10.7247 37.3624 10.7247 36.8012C10.7247 36.2173 10.633 36.1482 10.3156 36.1482C9.99816 36.1482 9.91069 36.2173 9.91069 36.8012Z" fill="white"/>
<path d="M12.5617 37.9152H11.8916V35.8267C12.2547 35.7001 12.6357 35.6325 13.0202 35.6265C13.6339 35.6265 13.9387 35.8831 13.9387 36.6841V37.9152H13.2685V36.7363C13.2685 36.3316 13.2036 36.223 12.8763 36.223C12.7694 36.2231 12.6628 36.2359 12.5589 36.2611L12.5617 37.9152Z" fill="white"/>
<path d="M0.938287 43.9153H0.015625V39.9258H0.938287V41.3797H2.44079V39.9258H3.36345V43.9153H2.44079V42.2315H0.938287V43.9153Z" fill="white"/>
<path d="M6.74621 43.766C6.29628 43.9142 5.82606 43.9917 5.35234 43.9959C4.38454 43.9959 4.09814 43.7886 4.09814 43.0214C4.09814 42.1978 4.54396 42.0667 5.24371 42.0667C5.46755 42.0692 5.6906 42.0937 5.90961 42.14C5.90961 41.7339 5.8165 41.6197 5.24371 41.6197C4.93474 41.6229 4.62783 41.6704 4.33234 41.7607L4.19126 41.0556C4.60437 40.9561 5.02758 40.9045 5.45251 40.9019C6.32862 40.9019 6.74198 41.1698 6.74198 42.0399L6.74621 43.766ZM5.42147 43.3429C5.58751 43.3433 5.75246 43.3161 5.90961 43.2626V42.7069C5.75277 42.6751 5.59271 42.6618 5.43276 42.6674C5.11815 42.6674 5.00952 42.7013 5.00952 42.9932C5.00952 43.2851 5.07724 43.3429 5.42147 43.3429Z" fill="white"/>
<path d="M9.26877 40.9849H10.1392V43.7376C9.66105 43.9012 9.16038 43.9897 8.65507 43.9999C7.84104 43.9999 7.45166 43.6572 7.45166 42.6094V40.9849H8.32212V42.5361C8.32212 43.0621 8.41382 43.2102 8.84412 43.2102C8.98686 43.2072 9.12883 43.1883 9.26736 43.1538L9.26877 40.9849Z" fill="white"/>
<path d="M11.9225 41.7392V42.8321C11.9225 43.1311 12.0086 43.2552 12.3175 43.2552C12.4779 43.2543 12.6371 43.2271 12.7887 43.1748L12.9298 43.8503C12.6468 43.9526 12.3476 44.0033 12.0467 43.9998C11.3991 43.9998 11.0379 43.8051 11.0379 42.9294V41.7434H10.5625V40.9889H11.0379V40.5532L11.9211 40.1992V40.9889H12.8381V41.7434L11.9225 41.7392Z" fill="white"/>
<path d="M15.31 41.7166C15.0279 41.6395 14.7375 41.5974 14.4452 41.5911C14.1701 41.5911 14.0332 41.6136 14.0332 41.8421C14.0332 41.9972 14.1122 42.0367 14.5651 42.0945C15.2479 42.1805 15.5527 42.3864 15.5527 42.9872C15.5527 43.7825 14.9799 43.9955 14.2406 43.9955C13.8866 43.9932 13.5349 43.9391 13.1966 43.8347L13.3687 43.1705C13.6395 43.2456 13.9187 43.2859 14.1997 43.2904C14.5439 43.2904 14.7048 43.2622 14.7048 43.0323C14.7048 42.873 14.6074 42.8095 14.1193 42.7644C13.507 42.7065 13.1797 42.5289 13.1797 41.9055C13.1797 41.1102 13.744 40.9043 14.4804 40.9043C14.8211 40.9062 15.1594 40.9605 15.4835 41.0651L15.31 41.7166Z" fill="white"/>
<path d="M15.8955 41.8662H17.4036V42.7123H15.8955V41.8662Z" fill="white"/>
<path d="M20.5963 43.7884C20.1664 43.9263 19.7175 43.9963 19.2659 43.9957C18.2685 43.9957 17.8213 43.6404 17.8213 42.4445C17.8213 41.2656 18.3376 40.9116 19.0656 40.9116C19.2879 40.9078 19.5084 40.9506 19.7132 41.0371V39.7891H20.5963V43.7884ZM19.7132 41.8423C19.7132 41.7168 19.5128 41.6195 19.2547 41.6195C18.8427 41.6195 18.7101 41.8029 18.7101 42.4262C18.7101 43.1313 18.8512 43.2568 19.2659 43.2568C19.4178 43.2591 19.5691 43.2358 19.7132 43.1877V41.8423Z" fill="white"/>
<path d="M23.7382 43.8347C23.394 43.9385 23.0368 43.9927 22.6773 43.9955C21.852 43.9955 21.2383 43.6345 21.2383 42.4316C21.2383 41.2526 21.7772 40.9043 22.6195 40.9043C23.5943 40.9043 24.019 41.2019 23.9386 42.7065H22.144C22.1553 43.1761 22.3683 43.2622 22.7916 43.2622C23.0655 43.2574 23.3383 43.2248 23.6056 43.1649L23.7382 43.8347ZM22.1497 42.0621H23.1697C23.1584 41.6559 23.0286 41.5685 22.6829 41.5685C22.3161 41.5671 22.2019 41.6884 22.1497 42.0621Z" fill="white"/>
<path d="M24.3164 41.8662H25.8246V42.7123H24.3164V41.8662Z" fill="white"/>
<path d="M29.3616 39.9258V40.7324H27.3724V41.6603H28.8452V42.4501H27.3724V43.9153H26.4497V39.9258H29.3616Z" fill="white"/>
<path d="M29.7397 40.9848H30.6229V41.2161C30.7202 41.044 30.9051 40.9072 31.3283 40.9072C31.4259 40.9077 31.5233 40.9134 31.6203 40.9241V41.7421C31.4856 41.7088 31.3471 41.6936 31.2084 41.6969C30.8924 41.6969 30.6173 41.7999 30.6173 41.9945V43.918H29.7397V40.9848Z" fill="white"/>
<path d="M34.549 43.766C34.0995 43.9143 33.6298 43.9919 33.1565 43.9959C32.1873 43.9959 31.9009 43.7886 31.9009 43.0214C31.9009 42.1978 32.3481 42.0667 33.0479 42.0667C33.2712 42.0691 33.4938 42.0937 33.7124 42.14C33.7124 41.7339 33.6207 41.6197 33.0479 41.6197C32.7389 41.6229 32.432 41.6704 32.1365 41.7607L31.9954 41.0556C32.4086 40.9562 32.8317 40.9047 33.2567 40.9019C34.1342 40.9019 34.5461 41.1698 34.5461 42.0399L34.549 43.766ZM33.2256 43.3429C33.3912 43.3434 33.5557 43.3163 33.7124 43.2626V42.7069C33.556 42.675 33.3964 42.6617 33.2369 42.6674C32.9223 42.6674 32.8066 42.7013 32.8066 42.9932C32.8066 43.2851 32.8814 43.3429 33.2256 43.3429Z" fill="white"/>
<path d="M36.1601 43.9151H35.2783V41.1666C35.7569 41.0006 36.2588 40.9121 36.7653 40.9043C37.5737 40.9043 37.9744 41.2413 37.9744 42.2948V43.9151H37.0926V42.3639C37.0926 41.8308 37.0066 41.6884 36.5763 41.6884C36.4336 41.6882 36.2915 41.7053 36.153 41.7391L36.1601 43.9151Z" fill="white"/>
<path d="M40.9697 43.8462C40.6728 43.9477 40.3608 43.9982 40.047 43.9956C39.1709 43.9956 38.5854 43.6346 38.5854 42.4317C38.5854 41.2288 39.1766 40.9044 40.047 40.9044C40.359 40.9015 40.6698 40.9438 40.9697 41.0299L40.7863 41.7802C40.5732 41.7029 40.3485 41.6624 40.1218 41.6603C39.6986 41.6603 39.4743 41.7336 39.4743 42.4557C39.4743 43.1425 39.6929 43.2454 40.1218 43.2454C40.3497 43.2435 40.5751 43.1985 40.7863 43.1128L40.9697 43.8462Z" fill="white"/>
<path d="M43.79 43.8347C43.4463 43.9385 43.0896 43.9927 42.7305 43.9955C41.9052 43.9955 41.2915 43.6345 41.2915 42.4316C41.2915 41.2526 41.8304 40.9043 42.6727 40.9043C43.6475 40.9043 44.0722 41.2019 43.9918 42.7065H42.1972C42.2085 43.1761 42.4216 43.2622 42.8448 43.2622C43.1187 43.2574 43.3915 43.2248 43.6588 43.1649L43.79 43.8347ZM42.2029 42.0621H43.2229C43.2116 41.6559 43.0818 41.5685 42.7362 41.5685C42.3694 41.5671 42.2551 41.6884 42.2029 42.0621Z" fill="white"/>
</g>
<defs>
<clipPath id="clip0">
<rect width="44" height="44" fill="white"/>
</clipPath>
</defs>
</svg>
