<svg width="24" height="24" viewBox="0 0 24 24" fill="none" xmlns="http://www.w3.org/2000/svg">
<path fill-rule="evenodd" clip-rule="evenodd" d="M7 1C3.68629 1 1 3.68629 1 7L1 17C1 20.3137 3.68629 23 7 23L17 23C20.3137 23 23 20.3137 23 17L23 7C23 3.68629 20.3137 1 17 1L7 1ZM12.0001 5C10.099 5 9.86057 5.00806 9.11394 5.04212C8.36887 5.07611 7.86001 5.19445 7.41475 5.36748C6.95444 5.54637 6.56406 5.78573 6.17488 6.17488C5.78573 6.56406 5.54637 6.95444 5.36751 7.41475C5.19445 7.86001 5.07611 8.36887 5.04212 9.11394C5.00806 9.86057 5 10.099 5 12C5 13.9012 5.00806 14.1395 5.04212 14.8862C5.07611 15.6312 5.19445 16.1401 5.36751 16.5854C5.54637 17.0457 5.78573 17.4361 6.17488 17.8252C6.56406 18.2144 6.95444 18.4537 7.41475 18.6326C7.86001 18.8057 8.36887 18.924 9.11394 18.958C9.86057 18.9921 10.099 19.0001 12.0001 19.0001C13.9012 19.0001 14.1395 18.9921 14.8862 18.958C15.6312 18.924 16.1401 18.8057 16.5854 18.6326C17.0457 18.4537 17.4361 18.2144 17.8252 17.8252C18.2144 17.4361 18.4537 17.0457 18.6326 16.5854C18.8057 16.1401 18.924 15.6312 18.958 14.8862C18.9921 14.1395 19.0001 13.9012 19.0001 12C19.0001 10.099 18.9921 9.86057 18.958 9.11394C18.924 8.36887 18.8057 7.86001 18.6326 7.41475C18.4537 6.95444 18.2144 6.56406 17.8252 6.17488C17.4361 5.78573 17.0457 5.54637 16.5854 5.36748C16.1401 5.19445 15.6312 5.07611 14.8862 5.04212C14.1395 5.00806 13.9012 5 12.0001 5ZM8 12C8 9.79085 9.79085 8 12 8C14.2092 8 16 9.79085 16 12C16 14.2092 14.2092 16 12 16C9.79085 16 8 14.2092 8 12ZM17.5 7.50002C17.5 8.05227 17.0523 8.5 16.5 8.5C15.9477 8.5 15.5 8.05227 15.5 7.50002C15.5 6.94773 15.9477 6.5 16.5 6.5C17.0523 6.5 17.5 6.94773 17.5 7.50002ZM9.40351 12C9.40351 13.434 10.566 14.5965 12 14.5965C13.434 14.5965 14.5965 13.434 14.5965 12C14.5965 10.566 13.434 9.40351 12 9.40351C10.566 9.40351 9.40351 10.566 9.40351 12Z" fill="#FCFDFD"/>
</svg>
