<svg width="24" height="24" viewBox="0 0 24 24" fill="none" xmlns="http://www.w3.org/2000/svg">
<path fill-rule="evenodd" clip-rule="evenodd" d="M7 1C3.68629 1 1 3.68629 1 7L1 17C1 20.3137 3.68629 23 7 23L17 23C20.3137 23 23 20.3137 23 17L23 7C23 3.68629 20.3137 1 17 1L7 1ZM8.03848 6.53568C8.03848 7.37287 7.43518 8.0504 6.49173 8.0504C5.58504 8.0504 4.98175 7.37287 5.00042 6.53568C4.98175 5.65779 5.58503 5 6.50981 5C7.43517 5 8.02039 5.65779 8.03848 6.53568ZM5.07627 18.9981L5.07627 9.24701H7.94453L7.94453 18.9981H5.07627ZM10.2434 12.359C10.2434 11.1427 10.2055 10.1057 10.1675 9.2482H12.6589L12.7913 10.5841H12.8479C13.2254 9.9658 14.1689 9.02935 15.6975 9.02935C17.5844 9.02935 18.9999 10.3456 18.9999 13.2159L18.9999 18.9999H16.1316V13.5957C16.1316 12.3387 15.7168 11.4818 14.6788 11.4818C13.8859 11.4818 13.4145 12.06 13.226 12.6179C13.1502 12.8177 13.1128 13.0963 13.1128 13.3762V18.9999H10.2446V12.359H10.2434Z" fill="#FCFDFD"/>
</svg>
