<svg width="24" height="24" viewBox="0 0 24 24" fill="none" xmlns="http://www.w3.org/2000/svg">
<path fill-rule="evenodd" clip-rule="evenodd" d="M5.56944 4.55127L7.7598 6.74167C10.2273 4.74702 13.7725 4.74703 16.2399 6.74167L18.4304 4.55126C14.7449 1.36287 9.25492 1.36287 5.56944 4.55127ZM18.4304 19.4487L16.2399 17.2583C13.7725 19.2529 10.2273 19.2529 7.7598 17.2583L5.56944 19.4487C9.25492 22.6371 14.7449 22.6371 18.4304 19.4487ZM4.02375 4.02381C8.42886 -0.381308 15.571 -0.381307 19.9761 4.02381C24.3812 8.42892 24.3812 15.571 19.9761 19.9761C15.571 24.3812 8.42886 24.3812 4.02375 19.9761C-0.381369 15.571 -0.381369 8.42892 4.02375 4.02381ZM15.7576 8.2422C13.6823 6.16685 10.3175 6.16685 8.2421 8.2422C6.16674 10.3176 6.16674 13.6824 8.2421 15.7577C10.3175 17.8331 13.6823 17.8331 15.7576 15.7577C17.833 13.6824 17.833 10.3176 15.7576 8.2422Z" fill="white"/>
</svg>
