<svg width="34" height="34" viewBox="0 0 34 34" fill="none" xmlns="http://www.w3.org/2000/svg">
<path fill-rule="evenodd" clip-rule="evenodd" d="M3.09288 0.333252C2.14909 0.333252 1.35628 1.09506 1.2523 2.10186L0.333336 10.9999C0.333336 11.7139 0.666542 12.5604 1.43496 13.21C2.2176 13.8717 3.3446 14.2463 4.80953 14.2463C6.08162 14.2463 7.0989 13.9638 7.85715 13.4562C8.61539 13.9638 9.63267 14.2463 10.9048 14.2463C12.1769 14.2463 13.1941 13.9638 13.9524 13.4562C14.7106 13.9638 15.7279 14.2463 17 14.2463C18.2721 14.2463 19.2894 13.9638 20.0476 13.4562C20.8059 13.9638 21.8232 14.2463 23.0952 14.2463C24.3673 14.2463 25.3846 13.9638 26.1429 13.4562C26.9011 13.9638 27.9184 14.2463 29.1905 14.2463C30.6554 14.2463 31.7824 13.8717 32.565 13.21C33.3335 12.5604 33.6667 11.7139 33.6667 10.9999L32.7477 2.10186C32.6437 1.09506 31.8509 0.333252 30.9071 0.333252H3.09288Z" fill="#008BF4"/>
<path fill-rule="evenodd" clip-rule="evenodd" d="M4.49967 17.269C4.49967 16.4457 3.87785 15.7783 3.11078 15.7783C2.34372 15.7783 1.7219 16.4457 1.7219 17.269V31.1821C1.7219 32.5543 2.75827 33.6666 4.03671 33.6666H29.9626C31.2411 33.6666 32.2775 32.5543 32.2775 31.1821V17.269C32.2775 16.4457 31.6556 15.7783 30.8886 15.7783C30.1215 15.7783 29.4997 16.4457 29.4997 17.269V23.2318H4.49967V17.269Z" fill="#008BF4"/>
</svg>
