<svg width="24" height="24" viewBox="0 0 24 24" fill="none" xmlns="http://www.w3.org/2000/svg">
<path fill-rule="evenodd" clip-rule="evenodd" d="M7 1C3.68629 1 1 3.68629 1 7V17C1 20.3137 3.68629 23 7 23H17C20.3137 23 23 20.3137 23 17V7C23 3.68629 20.3137 1 17 1H7ZM18.9696 12.6488C18.9791 12.5478 18.9863 12.4467 18.9914 12.3454L18.9923 12.3211C18.9971 12.2145 19 12.1074 19 11.9996C19 8.13324 15.8661 5 11.9998 5H11.9814C11.9591 5 11.9368 5.00045 11.9145 5.00089C11.9056 5.00107 11.8966 5.00125 11.8877 5.0014C11.8787 5.00154 11.8697 5.00162 11.8608 5.00171C11.8473 5.00183 11.8338 5.00196 11.8203 5.00228L11.8131 5.00245C11.7765 5.0035 11.7402 5.00506 11.7038 5.00663L11.7033 5.00665L11.7032 5.00665C11.695 5.007 11.6868 5.0073 11.6786 5.00759C11.6663 5.00803 11.654 5.00847 11.6418 5.0091L11.6354 5.00928C11.5982 5.01131 11.5609 5.01385 11.5237 5.01639L11.5023 5.01773C11.5008 5.01782 11.4992 5.01791 11.4977 5.01799C11.4865 5.01864 11.4753 5.01929 11.4643 5.02013L11.459 5.02065C11.4254 5.02315 11.3919 5.02626 11.3585 5.02936C11.3521 5.02996 11.3457 5.03056 11.3392 5.03116L11.3244 5.03247C11.3225 5.03263 11.3207 5.03279 11.3188 5.03295C11.3117 5.03356 11.3045 5.03417 11.2974 5.03484C11.3173 5.03287 11.3373 5.03117 11.3573 5.02947C11.3677 5.02858 11.3781 5.0277 11.3885 5.02678L11.3392 5.03116C11.3343 5.03162 11.3294 5.03205 11.3244 5.03247L11.2939 5.03518C11.2951 5.03507 11.2962 5.03495 11.2974 5.03484C11.2944 5.03512 11.2915 5.0354 11.2886 5.03571L11.2865 5.03588L11.2836 5.03623C11.2423 5.04043 11.2011 5.04534 11.1599 5.05024L11.1135 5.05566C11.099 5.05752 11.0845 5.05956 11.07 5.06161C11.06 5.06303 11.0499 5.06445 11.0397 5.06582L11.0339 5.06669L11.0245 5.06796C10.9963 5.07174 10.9678 5.07557 10.9399 5.07982C10.9259 5.08191 10.912 5.08422 10.8981 5.08654C10.8876 5.0883 10.877 5.09006 10.8664 5.09172C10.8584 5.09309 10.8503 5.0944 10.8422 5.09571C10.8344 5.09695 10.8267 5.0982 10.819 5.09951C10.8018 5.10229 10.7846 5.10515 10.7677 5.10818C10.7453 5.11221 10.7229 5.11654 10.7005 5.12089L10.6948 5.122L10.6874 5.1234C10.6813 5.12454 10.6752 5.12568 10.6691 5.12683C10.645 5.13131 10.6206 5.13585 10.597 5.14073C10.5828 5.1436 10.5687 5.14665 10.5547 5.1497C10.5447 5.15187 10.5347 5.15403 10.5247 5.15614C10.5191 5.15738 10.5134 5.1586 10.5078 5.15981L10.5166 5.15789C10.511 5.1591 10.5054 5.1603 10.4997 5.1615C10.476 5.16657 10.4523 5.17163 10.4288 5.17714L10.4277 5.17732C10.4136 5.18053 10.3995 5.18398 10.3854 5.18743C10.3757 5.18981 10.366 5.19218 10.3563 5.19447L10.3476 5.19657C10.3408 5.19822 10.334 5.19986 10.3272 5.2015C10.3052 5.20682 10.2832 5.21213 10.2613 5.21775L10.2697 5.21548L10.2599 5.2181C10.2429 5.22239 10.2261 5.22695 10.2092 5.23152C10.2026 5.2333 10.1961 5.23507 10.1895 5.23683C10.183 5.23855 10.1766 5.24025 10.1701 5.24195C10.1555 5.2458 10.1409 5.24963 10.1264 5.25364L10.1802 5.23928C10.1692 5.24229 10.1581 5.24525 10.147 5.24821C10.1297 5.25281 10.1124 5.25741 10.0953 5.26221L10.1049 5.25941L10.0829 5.26571C10.0451 5.27646 10.0074 5.28766 9.96975 5.29903C9.96691 5.29987 9.96408 5.30073 9.96126 5.3016C9.96409 5.30074 9.96692 5.29988 9.96975 5.29903C9.97793 5.29659 9.98614 5.29424 9.99436 5.29188C10.0011 5.28995 10.0079 5.28801 10.0146 5.28602C10.0085 5.28782 10.0024 5.2896 9.9963 5.29139C9.97445 5.29779 9.95264 5.30417 9.93105 5.31087L9.94169 5.30737L9.91938 5.3142L9.90462 5.3191C9.86909 5.33013 9.83374 5.34151 9.79856 5.35323C9.80877 5.34983 9.81903 5.34661 9.82929 5.3434C9.83215 5.3425 9.83499 5.34161 9.83784 5.34071C9.81464 5.3481 9.79137 5.35553 9.76835 5.36321L9.78002 5.35919L9.75702 5.36689L9.75531 5.36759L9.75102 5.36899L9.73214 5.37564C9.70056 5.38649 9.66932 5.39734 9.63809 5.40855L9.68855 5.39104C9.68083 5.39375 9.6731 5.39644 9.66537 5.39913C9.64609 5.40585 9.62677 5.41258 9.60754 5.41957L9.62007 5.41485L9.59638 5.42343L9.5945 5.42413L9.58197 5.42885L9.56395 5.43568C9.5358 5.44618 9.50765 5.45668 9.47968 5.46754C9.49102 5.46311 9.50244 5.45885 9.51389 5.45459C9.51873 5.45278 9.52357 5.45098 9.52842 5.44916C9.51955 5.45254 9.51066 5.45589 9.50177 5.45924C9.484 5.46593 9.46623 5.47261 9.44862 5.47961L9.462 5.47419L9.4378 5.48364L9.43557 5.48452L9.41669 5.49222L9.39936 5.49922L9.32367 5.52985L9.37001 5.51112C9.36404 5.51355 9.35807 5.51597 9.35209 5.51839C9.33182 5.5266 9.31156 5.53481 9.29141 5.54333L9.30565 5.5372L9.28094 5.54753L9.27854 5.54858L9.25451 5.55908L9.23769 5.56626C9.22937 5.56989 9.22103 5.57349 9.21268 5.5771C9.20159 5.58188 9.19049 5.58668 9.17943 5.59154C9.1763 5.5929 9.17318 5.59427 9.17007 5.59567C9.17319 5.59428 9.1763 5.59291 9.17943 5.59154C9.18478 5.58921 9.19015 5.58693 9.19551 5.58465C9.20152 5.5821 9.20752 5.57955 9.21349 5.57694C9.20654 5.57996 9.19958 5.58297 9.19262 5.58598C9.17379 5.59413 9.15493 5.60228 9.13626 5.61072L9.15102 5.60389L9.12613 5.6151L9.12339 5.61632L9.09524 5.62945C9.06958 5.6409 9.04406 5.65268 9.0187 5.66481L9.05903 5.64625C9.03363 5.65798 9.00823 5.66971 8.983 5.68179L8.99845 5.67409L8.97322 5.68634L8.97047 5.68774C8.9618 5.69181 8.95335 5.69599 8.94486 5.7002C8.94276 5.70124 8.94066 5.70228 8.93855 5.70332L8.92293 5.71102L8.86956 5.73728L8.90663 5.71907C8.89733 5.72371 8.88801 5.72833 8.87868 5.73296C8.86304 5.7407 8.84739 5.74846 8.8318 5.75635L8.84793 5.74795L8.82253 5.76091L8.81944 5.76248L8.7846 5.78069L8.7695 5.78856L8.74188 5.80301C8.73556 5.80626 8.72922 5.80952 8.72299 5.81289L8.74188 5.80301C8.74224 5.80282 8.74261 5.80264 8.74298 5.80245C8.74744 5.80016 8.75189 5.79787 8.75628 5.79556L8.68266 5.83442L8.69931 5.82532L8.67373 5.83915L8.67047 5.8409L8.63323 5.86155L8.61864 5.86961C8.61488 5.8717 8.61111 5.87377 8.60733 5.87585L8.60817 5.87538C8.60284 5.87835 8.59751 5.88131 8.59218 5.88428C8.57332 5.89475 8.55448 5.90521 8.53575 5.91599L8.55274 5.90602L8.52734 5.92072C8.52614 5.92126 8.52499 5.9219 8.52391 5.92264L8.48426 5.94575C8.47349 5.95216 8.46268 5.9585 8.45184 5.96479L8.46212 5.9587L8.43689 5.97341C8.44188 5.97055 8.44687 5.96767 8.45184 5.96479L8.3909 6.00089L8.4084 5.99004L8.383 6.00561L8.3794 6.00771L8.33804 6.03327L8.32465 6.0415L8.29753 6.0583L8.24828 6.08911L8.2409 6.09383L8.23712 6.09629C8.22667 6.10288 8.21631 6.10967 8.20597 6.11643C8.20205 6.119 8.19813 6.12157 8.19422 6.12412L8.18134 6.13252L8.17111 6.13922C8.17305 6.13798 8.17498 6.13675 8.17688 6.13549C8.17404 6.13734 8.17119 6.13918 8.16834 6.14103L8.17072 6.13946C8.16773 6.14137 8.16472 6.14329 8.16176 6.14531C8.14381 6.15698 8.12588 6.16877 8.10806 6.18066L8.12642 6.16823L8.1012 6.18521L8.09725 6.18801L8.05297 6.21829L8.04078 6.22669L8.03612 6.22983L8.03787 6.22862L8.0262 6.23649L8.03612 6.22983L7.97008 6.27553L7.98878 6.26222L7.96373 6.2799L7.95978 6.28288C7.94898 6.29043 7.93836 6.29815 7.92766 6.30592C7.92322 6.30915 7.91878 6.31238 7.9143 6.31561L7.90263 6.32401L7.89439 6.32997L7.90108 6.32506C7.89606 6.32872 7.89103 6.33237 7.88599 6.33603C7.86884 6.34848 7.85165 6.36097 7.83466 6.37355L7.85371 6.3592L7.82883 6.37775L7.82471 6.3809C7.81269 6.3898 7.80087 6.39879 7.78902 6.40781C7.78548 6.41051 7.78193 6.41321 7.77837 6.41591L7.76687 6.42466C7.76187 6.42848 7.75686 6.43229 7.75185 6.43611C7.73501 6.44893 7.71815 6.46178 7.70148 6.47473L7.72088 6.4595L7.69634 6.47875L7.69205 6.48208L7.64554 6.51901L7.63455 6.52776C7.61327 6.54474 7.59199 6.56172 7.57088 6.57905C7.57757 6.57362 7.58392 6.56802 7.59062 6.56277C7.58454 6.56755 7.57855 6.57252 7.57259 6.57747C7.57047 6.57923 7.56836 6.58098 7.56624 6.58273L7.56195 6.5864L7.51562 6.62491L7.506 6.63296C7.5042 6.63448 7.50239 6.63599 7.50058 6.63749C7.50187 6.63639 7.50317 6.63529 7.50446 6.63419L7.49976 6.63817C7.49638 6.64097 7.49299 6.64377 7.4896 6.64656C7.4806 6.65399 7.47161 6.6614 7.46276 6.66902L7.43873 6.68985L7.43444 6.6937C7.41899 6.70683 7.40372 6.72031 7.38844 6.73379L7.37935 6.74166C7.3733 6.74699 7.36722 6.75226 7.36115 6.75751C7.35327 6.76434 7.3454 6.77115 7.33764 6.77807L7.31396 6.79978L7.3095 6.8038L7.26384 6.84564L7.25543 6.85334C7.25347 6.85514 7.2515 6.85693 7.24954 6.85872L7.25269 6.85579C7.24797 6.86014 7.24322 6.86445 7.23848 6.86874C7.23064 6.87586 7.2228 6.88296 7.2151 6.89027L7.19468 6.9097L7.19604 6.90844L7.19159 6.91268L7.18713 6.91688L7.14199 6.96029L7.13427 6.96764L7.09531 7.0051L7.07214 7.02838L7.06768 7.03293C7.05275 7.04764 7.03782 7.06269 7.02306 7.07774L7.01585 7.08492C7.01047 7.09041 7.00505 7.09583 6.99965 7.10125C6.99421 7.1067 6.98878 7.11214 6.98341 7.11762C6.9881 7.11284 6.99284 7.10809 6.99759 7.10334C7.00248 7.09846 7.00738 7.09356 7.01224 7.0886C7.00766 7.09327 7.00307 7.09794 6.99849 7.10261C6.98472 7.11662 6.97097 7.1306 6.95732 7.14478L6.97826 7.1229L6.95526 7.14688C6.93903 7.16382 6.92289 7.18086 6.90687 7.198L6.90017 7.205L6.86396 7.24316L6.84603 7.26309C6.84447 7.2648 6.84289 7.2665 6.84131 7.26819L6.83684 7.27309L6.79359 7.32088L6.78742 7.3277C6.78228 7.33349 6.77708 7.3392 6.77187 7.34492C6.76541 7.35201 6.75894 7.35912 6.75258 7.36639C6.74846 7.37097 6.74444 7.37566 6.74041 7.3804L6.73129 7.39089L6.7357 7.38594C6.7339 7.38806 6.73209 7.39017 6.73027 7.39229L6.7258 7.39719L6.68324 7.44656L6.67775 7.45303L6.6639 7.46911C6.66342 7.46965 6.66295 7.47019 6.66247 7.47074C6.6563 7.47778 6.65014 7.48482 6.64411 7.49207L6.6639 7.46911C6.66709 7.46546 6.67028 7.4618 6.67346 7.45811L6.62197 7.51885L6.61768 7.5241L6.57598 7.57469L6.57083 7.58099C6.5663 7.58657 6.56171 7.59212 6.55713 7.59767C6.55094 7.60516 6.54475 7.61265 6.53873 7.6202C6.53438 7.62554 6.5302 7.63094 6.52603 7.63634C6.52494 7.63775 6.52384 7.63917 6.52275 7.64058L6.51676 7.6482L6.51247 7.65363L6.4718 7.70544L6.46699 7.71157L6.4361 7.75095L6.4627 7.71717L6.41431 7.78018L6.41036 7.78561C6.39554 7.80512 6.38084 7.82473 6.36625 7.84443L6.33952 7.8804C6.34212 7.87692 6.34473 7.87347 6.34733 7.87002C6.35147 7.86454 6.3556 7.85907 6.35966 7.85353L6.31476 7.91514L6.31099 7.92057L6.27254 7.97448L6.26877 7.97991C6.26562 7.98435 6.26245 7.98877 6.25928 7.99319C6.25295 8.00201 6.24663 8.01084 6.24045 8.01982L6.26448 7.98603C6.25079 8.00549 6.23724 8.02494 6.22382 8.04452L6.22861 8.03732L6.21917 8.05132C6.22072 8.04905 6.22227 8.04679 6.22382 8.04452L6.21848 8.05255L6.21471 8.05798L6.17781 8.11241L6.17438 8.11767C6.17124 8.12234 6.16806 8.12701 6.16488 8.1317C6.159 8.14034 6.15311 8.14901 6.14743 8.15775C6.15222 8.15036 6.15723 8.14305 6.16222 8.13576C6.16492 8.13183 6.16761 8.1279 6.17026 8.12397C6.1555 8.14602 6.14074 8.16843 6.12615 8.19083L6.13045 8.18414C6.1287 8.18685 6.12693 8.18955 6.12512 8.19223L6.12169 8.19783C6.10984 8.21604 6.098 8.23442 6.08633 8.25297L6.08324 8.2577C6.07995 8.26287 6.07663 8.26802 6.07332 8.27316C6.068 8.28141 6.06268 8.28965 6.0575 8.29796L6.0793 8.26417C6.06488 8.28676 6.05063 8.30969 6.03656 8.33262C6.03883 8.32891 6.04104 8.32519 6.04325 8.32148C6.04429 8.31974 6.04533 8.31799 6.04638 8.31624L6.05338 8.30478C6.05098 8.3086 6.04866 8.31242 6.04638 8.31624L6.03519 8.33454L6.03193 8.33997C6.02947 8.34399 6.02701 8.34801 6.02456 8.35202C6.0157 8.36651 6.00685 8.38096 5.99812 8.39563L5.9952 8.40018C5.99224 8.40513 5.98926 8.41003 5.98628 8.41492C5.98113 8.42337 5.976 8.4318 5.971 8.44044C5.97513 8.43342 5.97939 8.42647 5.98367 8.41949C5.98631 8.41517 5.98897 8.41084 5.9916 8.40648C5.97752 8.42976 5.96379 8.45322 5.95006 8.47668C5.9519 8.4735 5.95373 8.4703 5.95555 8.46709C5.9577 8.46336 5.95984 8.45962 5.96198 8.45588C5.96469 8.45113 5.96741 8.44639 5.97014 8.44167C5.96606 8.44853 5.96211 8.45552 5.95816 8.46248C5.95729 8.46402 5.95642 8.46556 5.95555 8.46709C5.95323 8.47112 5.95089 8.47513 5.94852 8.47913L5.94543 8.48455L5.91316 8.54039C5.89709 8.56886 5.88113 8.59739 5.86528 8.62599L5.86236 8.63124L5.83181 8.6876L5.82958 8.69145C5.81377 8.72099 5.79816 8.75063 5.78273 8.78037L5.75373 8.83674L5.75184 8.84041C5.73742 8.86894 5.72318 8.89765 5.7091 8.92653L5.7067 8.93161C5.69743 8.95034 5.68834 8.96907 5.67941 8.98797L5.6777 8.9913C5.66557 9.01663 5.65371 9.04222 5.64187 9.06773C5.63997 9.07184 5.63807 9.07594 5.63616 9.08004L5.6341 9.08495L5.60836 9.14113L5.60699 9.14428C5.59343 9.17457 5.58021 9.2052 5.567 9.23583L5.56511 9.24038L5.54108 9.2964L5.54005 9.2992C5.52686 9.33049 5.51417 9.36195 5.50149 9.39342L5.50144 9.39354L5.49972 9.39792C5.497 9.40477 5.49425 9.41159 5.49151 9.41841C5.48681 9.43006 5.48213 9.4417 5.47758 9.45341L5.47655 9.45586C5.46402 9.48824 5.45167 9.5208 5.43948 9.55353L5.43794 9.55756L5.41769 9.61234C5.40535 9.64655 5.39328 9.68086 5.38147 9.71527L5.3801 9.71912L5.36156 9.77303C5.36144 9.77371 5.36121 9.77436 5.36088 9.77496C5.34939 9.80959 5.33824 9.8444 5.32709 9.8792L5.32707 9.87928L5.32604 9.88261L5.32394 9.88916C5.31898 9.90462 5.31405 9.91998 5.30939 9.93547L5.30888 9.93722C5.29772 9.97293 5.28725 10.009 5.27678 10.045L5.27592 10.0482L5.26099 10.0997L5.26065 10.1011C5.25002 10.1391 5.23967 10.1773 5.22959 10.2155L5.21654 10.2654L5.2162 10.2665C5.20642 10.305 5.19715 10.3437 5.18788 10.3825L5.18737 10.3848C5.18631 10.3892 5.18524 10.3937 5.18415 10.3983C5.18134 10.41 5.17847 10.422 5.17587 10.4336C5.16677 10.4735 5.15802 10.5138 5.14961 10.5541L5.14927 10.556L5.13948 10.6022C5.13107 10.6439 5.12318 10.6855 5.11546 10.7274L5.11511 10.7291L5.10722 10.7723C5.09949 10.8158 5.09246 10.8592 5.08559 10.9028L5.08542 10.9042L5.07907 10.9439C5.07221 10.989 5.06603 11.0346 5.06002 11.0799L5.05985 11.0809L5.05504 11.1168C5.04921 11.1641 5.04372 11.2122 5.03874 11.2597L5.03531 11.2912C5.03033 11.3405 5.02604 11.3908 5.02209 11.4405L5.01986 11.4667C5.01609 11.5185 5.01283 11.5709 5.01008 11.6232L5.00888 11.6434C5.00613 11.6981 5.00407 11.7531 5.00253 11.8081L5.00218 11.8214C4.99531 12.0973 5.00466 12.3735 5.03016 12.6483C5.04045 12.7611 5.05355 12.8737 5.06946 12.9859C5.06983 12.9887 5.0701 12.9915 5.07038 12.9943C5.07074 12.998 5.0711 13.0017 5.07169 13.0054C5.17842 13.746 5.40342 14.4639 5.73776 15.1304C5.73889 15.1326 5.73994 15.1349 5.74101 15.1372C5.74221 15.1398 5.74343 15.1424 5.7448 15.1449C5.79577 15.2461 5.84922 15.3459 5.9051 15.4444L5.90819 15.4502L5.91042 15.4538C6.39555 16.3051 7.04946 17.0438 7.83037 17.6228C7.87978 17.6593 7.92973 17.6951 7.98021 17.73C7.97313 17.7252 7.96603 17.7203 7.95893 17.7155C7.94409 17.7054 7.92925 17.6954 7.91464 17.6849C7.93271 17.6978 7.95102 17.7104 7.96932 17.723C7.98128 17.7312 7.99322 17.7395 8.00509 17.7478L8.05966 17.7857L8.10837 17.8189C8.10479 17.8164 8.10124 17.8139 8.09768 17.8114C8.09133 17.8069 8.08498 17.8025 8.07854 17.7982C8.11993 17.8261 8.16158 17.8535 8.20348 17.8806L8.18649 17.8699L8.22082 17.8922L8.26595 17.9214L8.32482 17.958L8.29874 17.9413C8.34043 17.9673 8.38236 17.9928 8.42454 18.0178L8.40806 18.0082C8.45142 18.0342 8.49507 18.0597 8.53901 18.0847L8.52356 18.0758C8.56289 18.0983 8.60236 18.1204 8.64211 18.1422C8.63691 18.1394 8.63169 18.1367 8.62654 18.1339C8.63551 18.1388 8.64445 18.1438 8.6534 18.1487C8.66773 18.1567 8.68208 18.1646 8.69656 18.1724C8.70376 18.1763 8.7111 18.18 8.71847 18.1838C8.7248 18.187 8.73114 18.1903 8.73741 18.1936L8.75302 18.2016C8.75451 18.2024 8.756 18.2032 8.75749 18.204C8.79984 18.2261 8.84241 18.2479 8.88517 18.2692C8.8789 18.266 8.8725 18.263 8.86609 18.2599C8.86135 18.2576 8.85661 18.2554 8.85192 18.2531L8.91572 18.2848L8.97974 18.3154L8.99896 18.3245C9.04035 18.3442 9.08194 18.3635 9.12373 18.3823C9.11599 18.3788 9.10818 18.3754 9.10036 18.372C9.0905 18.3678 9.08063 18.3635 9.07087 18.359C9.08508 18.3655 9.09942 18.3719 9.11376 18.3783C9.12281 18.3823 9.13187 18.3863 9.14089 18.3903C9.1644 18.4008 9.18797 18.4111 9.2116 18.4213C9.2214 18.4256 9.23113 18.4299 9.24084 18.4342C9.25939 18.4424 9.27786 18.4506 9.29656 18.4584C9.28201 18.4523 9.26772 18.4459 9.25342 18.4395C9.24426 18.4354 9.23509 18.4313 9.22585 18.4273C9.2727 18.4476 9.31973 18.4674 9.36709 18.4866L9.34392 18.4775L9.3731 18.4891C9.39646 18.4987 9.41991 18.5081 9.44347 18.5172C9.45114 18.5203 9.45881 18.5233 9.46647 18.5263C9.48724 18.5345 9.508 18.5427 9.52894 18.5507C9.51796 18.5465 9.50704 18.5421 9.49611 18.5377C9.48722 18.5341 9.47832 18.5305 9.46938 18.527C9.51761 18.5458 9.56618 18.5643 9.61492 18.5818C9.62129 18.5841 9.62759 18.5866 9.63388 18.589C9.64183 18.592 9.64977 18.5951 9.65782 18.5979L9.66658 18.6011C9.66941 18.6021 9.67228 18.603 9.67515 18.604C9.67803 18.6049 9.6809 18.6058 9.68374 18.6069C9.71125 18.6164 9.73883 18.6258 9.76646 18.635C9.76063 18.6331 9.75484 18.6311 9.74904 18.629C9.74325 18.6269 9.73746 18.6249 9.73162 18.623C9.76443 18.6342 9.79733 18.6452 9.83031 18.6559L9.8235 18.6537C9.80749 18.6486 9.79141 18.6434 9.77548 18.6381C9.8004 18.6465 9.82537 18.6547 9.85039 18.6627L9.90754 18.6811C9.93527 18.6898 9.96323 18.6981 9.99124 18.7064C9.99738 18.7082 10.0035 18.7101 10.0097 18.7119C10.0167 18.714 10.0237 18.7161 10.0308 18.7181C10.0504 18.724 10.0701 18.7298 10.0898 18.7355L10.1143 18.7427L10.1226 18.745L10.1365 18.7486C10.1704 18.758 10.2048 18.7667 10.239 18.7755C10.2465 18.7774 10.254 18.7793 10.2614 18.7812L10.2573 18.7801C10.2594 18.7806 10.2615 18.7812 10.2635 18.7817C10.2628 18.7816 10.2621 18.7814 10.2614 18.7812L10.2654 18.7822C10.2648 18.7821 10.2642 18.7819 10.2635 18.7817C10.2741 18.7844 10.2847 18.7872 10.2953 18.79C10.3109 18.7941 10.3265 18.7982 10.3423 18.802L10.3646 18.8075L10.3663 18.8078C10.4229 18.8213 10.4801 18.8337 10.5372 18.8458C10.5461 18.8477 10.5549 18.8497 10.5638 18.8517C10.576 18.8545 10.5882 18.8573 10.6006 18.8598C10.6397 18.8677 10.6791 18.8748 10.7185 18.8819C10.7286 18.8837 10.7386 18.8855 10.7487 18.8873C10.757 18.8888 10.7652 18.8904 10.7734 18.892C10.7841 18.8941 10.7947 18.8962 10.8055 18.8981L10.8199 18.9004L10.8513 18.9058L10.8496 18.9053C10.8662 18.9081 10.8829 18.9106 10.8996 18.913C10.91 18.9146 10.9204 18.9161 10.9308 18.9177L10.9716 18.9239C10.9813 18.9252 10.9909 18.9268 11.0005 18.9283C11.0128 18.9302 11.0251 18.9322 11.0375 18.9338L11.0507 18.9356C11.0692 18.9382 11.0877 18.9406 11.1062 18.9428L11.1024 18.9422C11.1369 18.9468 11.1717 18.9505 11.2064 18.9543L11.2019 18.9538C11.2149 18.9553 11.2278 18.9568 11.2407 18.9584C11.2631 18.9611 11.2854 18.9638 11.3078 18.966H11.3095C11.3156 18.9667 11.3218 18.967 11.3279 18.9674C11.334 18.9678 11.3402 18.9682 11.3463 18.9688C11.4305 18.9765 11.5149 18.9827 11.5994 18.9874C11.6079 18.9879 11.6164 18.9885 11.6249 18.9891C11.6387 18.9901 11.6526 18.9911 11.6665 18.9918C11.7685 18.9965 11.8707 18.9996 11.9737 19H12.0262C12.128 18.9995 12.2297 18.9967 12.3314 18.9918C12.3439 18.9912 12.3564 18.9903 12.3689 18.9895C12.379 18.9888 12.3891 18.9881 12.3992 18.9876C12.4838 18.9828 12.5681 18.9767 12.6518 18.9688C12.6573 18.9684 12.6628 18.968 12.6683 18.9677C12.6757 18.9672 12.683 18.9667 12.6902 18.966H12.6918C12.7101 18.9642 12.7283 18.9621 12.7465 18.9599C12.7584 18.9585 12.7704 18.957 12.7824 18.9557C12.7788 18.9561 12.7751 18.9564 12.7714 18.9568C12.7647 18.9574 12.7578 18.9581 12.7512 18.9589C12.8205 18.9513 12.8898 18.9429 12.9587 18.9335C12.9489 18.9348 12.9392 18.9362 12.9295 18.9377C12.9147 18.9398 12.8999 18.942 12.885 18.9438C12.9115 18.9406 12.9379 18.9369 12.9643 18.9332C12.9707 18.9323 12.9771 18.9314 12.9836 18.9305C12.987 18.93 12.9905 18.9296 12.9939 18.9292C12.9974 18.9288 13.0009 18.9284 13.0043 18.9279L13.0314 18.9242C13.0357 18.9235 13.04 18.9227 13.0443 18.922C13.0499 18.9209 13.0555 18.9199 13.0611 18.9191C13.0716 18.9175 13.0822 18.916 13.0928 18.9144C13.1071 18.9123 13.1215 18.9103 13.1358 18.9079C13.1226 18.91 13.1093 18.9119 13.096 18.9138C13.0863 18.9152 13.0765 18.9166 13.0668 18.9181C13.1404 18.9069 13.2137 18.8943 13.2865 18.8806C13.2804 18.8818 13.2744 18.8829 13.2683 18.884C13.2265 18.892 13.1846 18.8999 13.1423 18.9069C13.1902 18.899 13.2378 18.8901 13.2853 18.8812L13.3026 18.878C13.3107 18.8764 13.3189 18.8754 13.3268 18.8738L13.357 18.868L13.3616 18.8671C13.4536 18.8489 13.5448 18.8288 13.6354 18.8071L13.6177 18.8115L13.6716 18.7985L13.6838 18.7956C13.6927 18.7935 13.7015 18.7907 13.7104 18.7884L13.7222 18.7854C13.7908 18.768 13.8592 18.7495 13.9273 18.7301C13.904 18.7367 13.8808 18.7436 13.8573 18.75C13.8875 18.7418 13.9177 18.7332 13.9477 18.7247C13.9509 18.7236 13.9543 18.7228 13.9576 18.722C13.9599 18.7214 13.9623 18.7208 13.9646 18.7201L13.9987 18.71L14.0045 18.708C14.0346 18.699 14.0646 18.6898 14.0945 18.6802L14.0416 18.6961C14.1068 18.6763 14.1719 18.6557 14.2362 18.634L14.2045 18.6448C14.2255 18.638 14.2464 18.6312 14.2671 18.624C14.2704 18.623 14.2738 18.6221 14.2771 18.6209L14.3049 18.6111C14.3148 18.6076 14.3246 18.6035 14.3346 18.6L14.3346 18.6C14.3543 18.5931 14.3739 18.5863 14.3935 18.5793C14.4078 18.5742 14.4221 18.5691 14.4363 18.5638C14.4623 18.5542 14.4879 18.5441 14.5136 18.5341C14.5224 18.5306 14.5313 18.5272 14.5402 18.5237C14.5467 18.5212 14.5534 18.5188 14.5601 18.5163C14.5681 18.5135 14.5761 18.5106 14.5839 18.5074L14.6002 18.5008L14.6143 18.4947L14.6439 18.4829C14.6505 18.4804 14.6572 18.4778 14.6637 18.4751L14.6439 18.4829C14.6426 18.4834 14.6414 18.4839 14.6401 18.4844C14.634 18.4867 14.6279 18.4891 14.6219 18.4915C14.7091 18.4563 14.7956 18.4197 14.881 18.3811L14.8766 18.3832C14.8911 18.3766 14.9056 18.3698 14.92 18.363C14.9913 18.3302 15.0617 18.296 15.1318 18.261L15.0968 18.2788L15.1059 18.2743C15.1216 18.2665 15.1374 18.2587 15.153 18.2506C15.1563 18.2491 15.1597 18.2477 15.163 18.2459L15.1748 18.2401C15.1799 18.2375 15.1849 18.2348 15.1899 18.232C15.1968 18.2282 15.2037 18.2244 15.2107 18.2209C15.2452 18.203 15.2795 18.185 15.3137 18.1665C15.2917 18.1784 15.2694 18.19 15.2471 18.2015C15.2411 18.2046 15.235 18.2078 15.2289 18.2109C15.2905 18.1789 15.3518 18.1461 15.4124 18.1124L15.4191 18.1087L15.4354 18.0999L15.4546 18.0893C15.4696 18.0806 15.4845 18.0718 15.4993 18.063C15.5092 18.0572 15.5191 18.0513 15.5291 18.0455L15.5047 18.0593C15.5596 18.0275 15.6142 17.9949 15.6681 17.9617C15.6606 17.9662 15.6533 17.9709 15.6459 17.9755C15.6411 17.9786 15.6363 17.9816 15.6314 17.9847L15.6933 17.9466L15.7055 17.9392L15.7371 17.9195C15.745 17.9146 15.7525 17.9091 15.7604 17.9041C15.7697 17.8981 15.7791 17.8922 15.7885 17.8862C15.7959 17.8816 15.8032 17.877 15.8105 17.8724C15.804 17.8765 15.7975 17.8806 15.7909 17.8846C15.7826 17.8898 15.7742 17.8951 15.7659 17.9004C15.82 17.8659 15.8735 17.8302 15.9266 17.7941C15.919 17.7993 15.9114 17.8045 15.9038 17.8098C15.8826 17.8243 15.8614 17.8388 15.84 17.853C15.8757 17.8294 15.9109 17.8053 15.9461 17.7812C15.9494 17.779 15.9528 17.7768 15.9562 17.7746C15.961 17.7715 15.9658 17.7684 15.9705 17.7651L16.0031 17.7425L16.0052 17.7411C16.0808 17.6881 16.1555 17.6338 16.229 17.5781L16.2614 17.5531C16.3354 17.4964 16.4081 17.4383 16.4795 17.3788L16.5077 17.355C16.5801 17.2939 16.6515 17.2316 16.7215 17.1677L16.7416 17.1489C16.8137 17.0824 16.8847 17.0147 16.9541 16.9452L16.9613 16.9378C17.0315 16.8675 17.1 16.7954 17.1671 16.722L17.1763 16.7122C17.2417 16.6402 17.3056 16.5668 17.368 16.4922C17.3745 16.4845 17.3812 16.4768 17.3876 16.4689C17.4476 16.3967 17.5061 16.3232 17.563 16.2485C17.6917 16.0803 17.8129 15.9062 17.926 15.7267L17.95 15.6882C17.9986 15.61 18.0458 15.5309 18.0913 15.4507C18.1446 15.3569 18.1957 15.2618 18.2447 15.1655L18.2598 15.1353C18.3034 15.0483 18.3453 14.9605 18.3854 14.8718L18.393 14.8545C18.4339 14.7633 18.4728 14.6711 18.5097 14.5781L18.5131 14.5697C18.5497 14.4769 18.5842 14.3831 18.6168 14.2884L18.6264 14.2614C18.6574 14.17 18.6866 14.0779 18.7139 13.9852L18.7251 13.9472C18.7514 13.856 18.7758 13.7642 18.7983 13.6719L18.8092 13.6278C18.8311 13.5357 18.8511 13.4431 18.8692 13.3502L18.8781 13.3041C18.8957 13.2105 18.9116 13.1163 18.9255 13.0215L18.9317 12.9773C18.9453 12.8806 18.9568 12.7835 18.9664 12.6862L18.9696 12.6488ZM14.9245 18.3608C14.923 18.3615 14.9215 18.3623 14.92 18.363C14.9173 18.3642 14.9147 18.3654 14.912 18.3666C14.9162 18.3647 14.9203 18.3628 14.9245 18.3608ZM14.9245 18.3608C14.9268 18.3597 14.9292 18.3586 14.9315 18.3575C14.9437 18.3517 14.9558 18.3459 14.968 18.3403C14.9535 18.3471 14.939 18.354 14.9245 18.3608ZM14.4363 18.5638C14.4565 18.5563 14.4763 18.5485 14.4963 18.5406C14.5069 18.5364 14.5176 18.5322 14.5283 18.5281C14.4652 18.5524 14.4019 18.5762 14.338 18.5988C14.3453 18.5962 14.3527 18.5937 14.36 18.5911C14.3712 18.5872 14.3823 18.5832 14.3935 18.5793C14.4078 18.5742 14.4221 18.569 14.4363 18.5638ZM10.6006 18.8598L10.5892 18.8572C10.6077 18.861 10.6262 18.8644 10.6448 18.8678C10.6511 18.8689 10.6573 18.8701 10.6635 18.8712C10.6558 18.8698 10.648 18.8684 10.6402 18.8671C10.627 18.8647 10.6137 18.8624 10.6006 18.8598ZM10.0097 18.7119L9.98391 18.7038C9.99387 18.7069 10.0038 18.7099 10.0138 18.7129C10.0239 18.7159 10.0339 18.7189 10.044 18.7219L10.0097 18.7119ZM8.65194 18.1475C8.64866 18.1458 8.64538 18.144 8.64211 18.1422C8.6454 18.1439 8.64868 18.1457 8.65194 18.1475ZM6.51676 7.6482C6.51878 7.64567 6.52077 7.64313 6.52275 7.64058L6.53873 7.6202C6.54399 7.61362 6.54937 7.60716 6.55476 7.60068C6.55869 7.59595 6.56263 7.59121 6.56654 7.58641C6.54989 7.60672 6.53324 7.62755 6.51676 7.6482ZM7.50058 6.63749C7.5003 6.63772 7.50003 6.63794 7.49976 6.63817L7.49693 6.64057C7.49165 6.64499 7.48635 6.64939 7.48103 6.65379C7.47493 6.65884 7.46883 6.6639 7.46276 6.66902L7.44285 6.68635L7.49693 6.64057M8.16176 6.14531C8.16142 6.14554 8.16108 6.14577 8.16075 6.146L8.16834 6.14103C8.16615 6.14245 8.16395 6.14388 8.16176 6.14531ZM8.60733 5.87585C8.60609 5.87653 8.60485 5.87721 8.60361 5.87789C8.59534 5.88243 8.58705 5.88698 8.57883 5.89166L8.60733 5.87585ZM9.83784 5.34071C9.84214 5.33935 9.84645 5.33799 9.85073 5.33661L9.84206 5.33937C9.84066 5.33981 9.83925 5.34026 9.83784 5.34071ZM10.5078 5.15981C10.5047 5.16048 10.5015 5.16114 10.4984 5.16181C10.4865 5.16435 10.4745 5.16689 10.4626 5.16962L10.5078 5.15981ZM10.819 5.09951C10.8151 5.10016 10.8112 5.10083 10.8074 5.10152L10.8597 5.09295C10.8545 5.09379 10.8492 5.09464 10.8439 5.09549C10.8356 5.09682 10.8273 5.09815 10.819 5.09951ZM11.5042 5.01762L11.4947 5.0182L11.5023 5.01773C11.5029 5.0177 11.5035 5.01766 11.5042 5.01762ZM11.5203 5.01663L11.5704 5.01348L11.5237 5.01639C11.5226 5.01647 11.5214 5.01655 11.5203 5.01663ZM11.5203 5.01663L11.5042 5.01762C11.5096 5.0173 11.515 5.01698 11.5203 5.01663ZM11.8877 5.0014C11.8984 5.00125 11.9092 5.00107 11.9198 5.00089C11.9465 5.00045 11.9731 5 11.9998 5C11.9664 5 11.9329 5.00061 11.8996 5.00122C11.8931 5.00134 11.8865 5.00146 11.88 5.00158L11.8877 5.0014ZM6.73808 7.38314C6.73729 7.38407 6.73649 7.38501 6.7357 7.38594L6.7833 7.33243C6.77878 7.33751 6.77419 7.34252 6.76959 7.34754C6.76389 7.35376 6.75818 7.35999 6.75258 7.36639L6.74041 7.3804C6.73963 7.38131 6.73885 7.38223 6.73808 7.38314ZM6.86396 7.24316C6.85796 7.24983 6.85207 7.25651 6.84603 7.26309L6.84302 7.26644C6.85708 7.25097 6.87136 7.23573 6.88569 7.22045C6.8892 7.2167 6.89271 7.21295 6.89622 7.2092L6.86396 7.24316ZM7.07471 7.02593L7.09531 7.0051L7.13101 6.97079C7.12714 6.97455 7.12328 6.97831 7.11942 6.98206C7.10442 6.99664 7.08946 7.01117 7.07471 7.02593ZM7.2151 6.89027L7.19604 6.90844L7.24954 6.85872C7.24712 6.86092 7.24469 6.86312 7.24227 6.86532C7.2332 6.87354 7.22411 6.88179 7.2151 6.89027ZM7.31756 6.79663L7.33764 6.77807L7.37729 6.74359C7.35721 6.76109 7.3373 6.77877 7.31756 6.79663ZM8.46092 14.5664C8.22614 14.6201 7.99204 14.4729 7.9385 14.2382C7.88444 14.0031 8.03117 13.7698 8.2663 13.7157C10.9332 13.1063 13.2202 13.3687 15.0655 14.4967C15.1637 14.5555 15.2345 14.6522 15.2618 14.765C15.289 14.8777 15.2705 14.9969 15.2104 15.0955C15.0846 15.3022 14.8158 15.3667 14.6102 15.2413C12.9666 14.2369 10.8973 14.0092 8.46092 14.5664ZM8.34078 12.5539C8.05211 12.6407 7.74714 12.4783 7.65927 12.1907C7.57277 11.9022 7.73547 11.5971 8.02362 11.5098C10.5661 10.7384 13.7263 11.1121 15.8873 12.4398C16.1438 12.5977 16.2245 12.9336 16.0666 13.1909C15.9087 13.4468 15.5727 13.527 15.3161 13.3698C13.4349 12.2133 10.5664 11.8784 8.34078 12.5539ZM7.6282 9.14306C10.1008 8.39196 14.2112 8.53672 16.8087 10.079C17.12 10.2637 17.2223 10.6657 17.0377 10.9763C16.853 11.2873 16.4509 11.3904 16.1407 11.2052C13.8839 9.86546 10.1622 9.74188 8.00818 10.3955C7.66218 10.5007 7.29662 10.3057 7.19159 9.95945C7.0869 9.6134 7.28204 9.24791 7.6282 9.14306Z" fill="#FCFDFD"/>
</svg>
