<svg width="24" height="24" viewBox="0 0 24 24" fill="none" xmlns="http://www.w3.org/2000/svg">
<path fill-rule="evenodd" clip-rule="evenodd" d="M7 1C3.68629 1 1 3.68629 1 7L1 17C1 20.3137 3.68629 23 7 23L17 23C20.3137 23 23 20.3137 23 17L23 7C23 3.68629 20.3137 1 17 1L7 1ZM17.3504 8.58108C17.9314 8.51997 18.4853 8.38463 19 8.18366C18.615 8.68977 18.1279 9.13436 17.566 9.49118C17.5721 9.59905 17.5744 9.70814 17.5744 9.81765C17.5744 13.1533 14.6855 17 9.40271 17C7.78068 17 6.27112 16.5817 5 15.8656C5.22445 15.8893 5.4531 15.9012 5.68549 15.9012C7.03126 15.9012 8.26972 15.4973 9.25245 14.8205C7.9958 14.8 6.93467 14.07 6.56929 13.0672C6.74475 13.0967 6.92487 13.1127 7.11013 13.1127C7.37191 13.1127 7.62576 13.0815 7.86654 13.0241C6.55343 12.7916 5.56276 11.7716 5.56276 10.5481V10.5165C5.95054 10.7056 6.39291 10.8192 6.86421 10.8323C6.09286 10.3795 5.58656 9.60684 5.58656 8.7312C5.58656 8.26856 5.72795 7.83504 5.97527 7.46223C7.39197 8.98958 9.50817 9.99483 11.8955 10.0998C11.8465 9.91485 11.8208 9.72209 11.8208 9.5244C11.8208 8.13034 13.1069 7 14.693 7C15.5184 7 16.2655 7.30678 16.7895 7.79731C17.4433 7.6837 18.0588 7.47412 18.6132 7.18456C18.399 7.77393 17.9435 8.26856 17.3504 8.58108Z" fill="#FCFDFD"/>
</svg>
