<svg width="3355" height="736" viewBox="0 0 3355 736" fill="none" xmlns="http://www.w3.org/2000/svg">
<path d="M299.584 453.017C272.532 444.885 247.072 440.006 220.02 435.127C192.968 430.248 170.69 423.742 153.186 415.611C134.091 407.479 126.135 394.468 126.135 378.205C126.135 360.315 132.5 345.678 146.821 335.92C161.143 326.162 180.238 321.283 207.29 321.283C232.75 321.283 253.437 327.788 267.759 340.799C280.489 353.81 288.445 368.447 291.628 384.71C291.628 386.337 294.81 389.589 296.402 389.589H390.287C393.47 389.589 395.061 386.337 395.061 383.084C393.47 366.82 388.696 352.183 383.922 335.92C374.374 319.657 363.235 303.393 350.505 287.13C337.775 270.866 318.68 257.855 293.219 246.471C269.35 236.713 240.707 231.834 208.881 231.834C153.186 231.834 107.039 246.471 73.6222 275.745C40.2053 305.019 22.7012 340.799 22.7012 383.084C22.7012 418.863 32.2489 448.138 49.753 469.28C68.8484 490.422 91.1263 503.433 116.587 511.565C143.639 518.07 169.099 524.576 196.151 527.828C223.203 532.707 245.481 539.213 262.985 547.345C282.08 555.476 290.037 570.113 290.037 588.003C290.037 604.267 282.08 617.277 267.759 628.662C253.437 638.42 231.159 643.299 204.107 643.299C172.282 643.299 148.412 636.793 130.908 623.783C114.996 610.772 105.448 594.508 103.857 574.992C103.857 571.74 100.674 570.113 99.0827 570.113H5.1971C2.01454 570.113 -1.16802 573.366 0.423259 576.619C5.1971 622.156 22.7012 659.562 52.9356 688.836C84.7612 719.737 134.091 736 199.333 736C261.393 736 310.723 721.363 344.14 693.715C377.557 666.068 395.061 630.288 395.061 586.377C395.061 550.597 385.513 521.323 368.009 500.181C348.914 475.785 326.636 461.148 299.584 453.017Z" fill="white"/>
<path d="M702.182 230.199C630.575 230.199 571.697 254.594 525.55 303.385C479.403 352.175 458.716 412.35 458.716 480.656C458.716 550.589 480.994 609.137 525.55 657.927C570.106 706.718 628.983 731.113 702.182 731.113C775.381 731.113 834.259 706.718 878.815 657.927C923.371 609.137 945.649 550.589 945.649 480.656C945.649 410.723 923.371 352.175 878.815 303.385C834.259 256.221 775.381 230.199 702.182 230.199ZM799.251 592.874C773.79 620.522 740.373 635.159 700.591 635.159C660.809 635.159 628.984 620.522 603.523 592.874C578.063 563.6 565.332 527.82 565.332 482.282C565.332 436.745 578.063 399.339 603.523 370.065C628.984 342.417 660.809 327.78 700.591 327.78C740.373 327.78 772.199 342.417 799.251 370.065C824.711 397.713 837.441 435.118 837.441 482.282C839.033 527.82 824.711 565.226 799.251 592.874Z" fill="white"/>
<path d="M1244.8 327.78C1273.44 327.78 1297.31 335.911 1318 352.175C1337.09 366.812 1349.82 387.954 1357.78 412.35C1357.78 413.976 1360.96 415.602 1362.55 415.602H1462.8C1465.99 415.602 1467.58 412.35 1467.58 409.097C1459.62 361.933 1437.34 321.274 1400.74 285.495C1362.55 248.089 1311.63 230.199 1246.39 230.199C1177.96 230.199 1122.27 254.594 1077.71 303.385C1033.16 352.175 1010.88 410.723 1010.88 482.282C1010.88 552.215 1033.16 612.39 1077.71 659.554C1122.27 708.344 1177.96 732.739 1246.39 732.739C1310.04 732.739 1362.55 713.223 1400.74 677.443C1437.34 641.664 1459.62 601.005 1467.58 555.468C1467.58 552.215 1465.99 548.962 1462.8 548.962H1362.55C1360.96 548.962 1357.78 550.589 1357.78 552.215C1349.82 576.61 1337.09 596.126 1318 612.39C1297.31 628.653 1273.44 636.785 1244.8 636.785C1206.61 636.785 1176.37 622.148 1154.1 594.5C1131.82 565.226 1119.09 529.446 1119.09 483.909C1119.09 438.371 1130.23 400.965 1154.1 373.317C1176.37 342.417 1206.61 327.78 1244.8 327.78Z" fill="white"/>
<path d="M1656.94 308.29V246.489C1656.94 244.863 1655.35 241.61 1652.17 241.61H1561.46C1559.87 241.61 1556.69 243.237 1556.69 246.489V716.502C1556.69 719.755 1558.28 721.381 1561.46 721.381H1660.12C1663.3 721.381 1664.9 719.755 1664.9 716.502V472.551C1664.9 384.728 1704.68 339.191 1785.83 339.191C1792.2 339.191 1798.56 339.191 1803.34 340.817C1806.52 340.817 1809.7 339.191 1809.7 335.938V238.358H1793.79C1728.55 236.731 1682.4 261.126 1656.94 308.29Z" fill="white"/>
<path d="M2269.58 631.914V410.732C2269.58 353.81 2252.07 309.898 2218.66 278.998C2185.24 248.097 2134.32 231.834 2067.48 231.834C2000.65 231.834 1951.32 246.471 1917.9 277.372C1886.08 306.646 1866.98 344.052 1860.62 387.963C1860.62 391.216 1862.21 392.842 1865.39 392.842H1962.46C1964.05 392.842 1965.64 391.216 1967.23 389.589C1976.78 344.052 2008.61 322.909 2065.89 322.909C2132.73 322.909 2166.14 352.183 2166.14 410.732V417.237L2030.89 436.753C1911.54 454.643 1851.07 505.06 1851.07 588.003C1851.07 631.914 1865.39 666.068 1892.44 693.715C1919.5 719.737 1960.87 734.374 2016.56 734.374C2091.35 734.374 2145.46 709.979 2177.28 661.189C2177.28 672.573 2177.28 683.957 2178.87 693.715C2178.87 703.473 2180.47 711.605 2182.06 716.484C2182.06 721.363 2183.65 722.99 2183.65 722.99H2279.13C2282.31 722.99 2283.9 719.737 2283.9 716.484C2272.76 693.715 2269.58 666.068 2269.58 631.914ZM2164.55 526.202C2164.55 560.355 2153.41 589.629 2131.14 612.398C2108.86 635.167 2077.03 646.551 2035.66 646.551C1979.96 646.551 1952.91 625.409 1952.91 583.124C1952.91 547.344 1981.56 524.576 2040.43 514.818L2164.55 495.302V526.202Z" fill="white"/>
<path d="M2591.04 241.602H2508.29V121.253C2508.29 119.626 2506.7 118 2505.11 118H2404.86C2403.27 118 2401.68 119.626 2401.68 121.253V241.602H2333.25C2331.66 241.602 2330.07 243.228 2330.07 244.855V326.172C2330.07 327.798 2331.66 329.424 2333.25 329.424H2401.68V583.134C2401.68 677.462 2447.82 724.626 2538.53 724.626C2562.4 724.626 2581.49 722.999 2594.22 719.747V628.671H2559.21C2525.8 628.671 2508.29 609.155 2508.29 571.749V329.424H2591.04C2594.22 329.424 2597.4 326.172 2597.4 322.919V246.481C2597.4 244.855 2594.22 241.602 2591.04 241.602Z" fill="white"/>
<path d="M3103.41 456.277C3103.41 453.024 3103.41 451.398 3103.41 448.145C3100.23 417.244 3092.27 387.97 3081.13 363.575C3079.54 361.949 3079.54 360.322 3077.95 357.07C3073.18 348.938 3065.22 334.301 3060.45 326.169C3055.67 318.038 3049.31 309.906 3041.35 303.4C3025.44 285.511 3007.93 270.874 2988.84 261.116C2985.66 259.489 2980.88 256.237 2976.11 254.61C2968.15 251.358 2960.19 246.479 2950.65 244.852C2929.96 238.347 2907.68 235.094 2883.81 233.468C2879.04 233.468 2875.86 233.468 2871.08 233.468C2867.9 233.468 2864.72 233.468 2861.54 233.468C2837.67 235.094 2815.39 238.347 2794.7 244.852C2786.75 248.105 2777.2 251.358 2769.24 254.61C2766.06 256.237 2761.28 257.863 2756.51 261.116C2737.42 272.5 2719.91 285.511 2704 303.4C2667.4 344.059 2646.71 391.223 2641.94 449.771C2641.94 453.024 2641.94 454.65 2641.94 457.903C2641.94 467.661 2641.94 475.793 2641.94 482.298C2641.94 488.804 2641.94 500.188 2643.53 506.693C2643.53 509.946 2646.71 511.572 2648.3 511.572H3098.64C3101.82 511.572 3103.41 509.946 3103.41 506.693C3103.41 500.188 3105 487.177 3105 482.298V479.046C3103.41 474.167 3103.41 466.035 3103.41 456.277ZM3052.49 318.038C3050.9 316.411 3050.9 314.785 3049.31 313.159C3050.9 314.785 3052.49 316.411 3052.49 318.038ZM2746.96 431.882C2751.74 397.728 2766.06 370.081 2788.34 350.564C2793.11 345.685 2799.48 340.806 2805.84 337.554C2812.21 334.301 2818.57 331.048 2824.94 327.796C2837.67 322.917 2853.58 319.664 2869.49 319.664H2872.67C2888.59 319.664 2904.5 322.917 2917.23 327.796C2923.6 331.048 2929.96 334.301 2936.33 337.554C2942.69 340.806 2947.46 345.685 2953.83 350.564C2976.11 370.081 2990.43 397.728 2995.2 431.882H2746.96Z" fill="white"/>
<path d="M3084.34 571.751H2984.09C2980.91 571.751 2979.32 573.377 2977.73 575.004C2971.36 586.388 2965 596.146 2955.45 604.278C2933.17 625.42 2904.53 636.805 2869.52 638.431C2834.51 638.431 2805.87 627.047 2783.59 604.278C2775.63 596.146 2767.68 586.388 2761.31 575.004C2759.72 573.377 2758.13 571.751 2754.95 571.751H2654.7C2649.92 571.751 2646.74 576.63 2648.33 581.509C2664.24 625.42 2689.7 659.574 2724.71 687.221C2764.49 716.496 2810.64 732.759 2864.75 732.759H2869.52C2923.62 732.759 2969.77 718.122 3009.55 687.221C3046.15 659.574 3071.61 623.794 3085.93 581.509C3092.3 576.63 3089.12 571.751 3084.34 571.751Z" fill="white"/>
<rect x="2953" width="402" height="204" rx="48" fill="white"/>
<path d="M3073.44 77.64C3081.92 77.64 3088.68 80.56 3093.72 86.4C3098.68 92.32 3101.16 100.2 3101.16 110.04C3101.16 119.8 3098.68 127.64 3093.72 133.56C3088.68 139.48 3081.92 142.44 3073.44 142.44C3064.72 142.44 3058.12 139 3053.64 132.12V141H3039.12V55.56H3054.24V87.12C3058.64 80.8 3065.04 77.64 3073.44 77.64ZM3058.2 124.8C3060.92 128.24 3064.8 129.96 3069.84 129.96C3074.8 129.96 3078.72 128.16 3081.6 124.56C3084.4 121.04 3085.8 116.04 3085.8 109.56C3085.8 103.24 3084.4 98.44 3081.6 95.16C3078.88 91.8 3074.96 90.12 3069.84 90.12C3064.8 90.12 3060.88 91.84 3058.08 95.28C3055.28 98.72 3053.88 103.64 3053.88 110.04C3053.88 116.52 3055.32 121.44 3058.2 124.8ZM3169.05 111.12V114.72H3122.73C3123.29 120 3124.93 124 3127.65 126.72C3130.45 129.36 3134.17 130.68 3138.81 130.68C3145.69 130.68 3150.41 127.72 3152.97 121.8H3167.49C3165.89 128.12 3162.53 133.16 3157.41 136.92C3152.29 140.6 3146.05 142.44 3138.69 142.44C3129.49 142.44 3122.05 139.48 3116.37 133.56C3110.69 127.64 3107.85 119.8 3107.85 110.04C3107.85 100.28 3110.65 92.44 3116.25 86.52C3121.93 80.6 3129.33 77.64 3138.45 77.64C3147.81 77.64 3155.25 80.72 3160.77 86.88C3166.29 93.04 3169.05 101.12 3169.05 111.12ZM3138.33 89.4C3129.45 89.4 3124.29 94.32 3122.85 104.16H3153.93C3153.29 99.6 3151.61 96 3148.89 93.36C3146.17 90.72 3142.65 89.4 3138.33 89.4ZM3207.93 79.08V90.6H3195.69V124.08C3195.69 126.08 3196.21 127.48 3197.25 128.28C3198.37 129.08 3200.21 129.48 3202.77 129.48H3207.93V141C3204.65 141.32 3202.01 141.48 3200.01 141.48C3193.29 141.48 3188.37 140.24 3185.25 137.76C3182.21 135.2 3180.69 131.16 3180.69 125.64V90.6H3171.09V79.08H3180.69V61.08H3195.69V79.08H3207.93ZM3272.11 141H3256.99C3256.27 139.72 3255.71 137.2 3255.31 133.44C3251.15 139.44 3244.51 142.44 3235.39 142.44C3228.59 142.44 3223.15 140.8 3219.07 137.52C3215.07 134.24 3213.07 129.68 3213.07 123.84C3213.07 112.56 3220.99 106.12 3236.83 104.52L3246.19 103.68C3249.31 103.28 3251.55 102.56 3252.91 101.52C3254.27 100.4 3254.95 98.76 3254.95 96.6C3254.95 93.96 3254.07 92.04 3252.31 90.84C3250.63 89.56 3247.75 88.92 3243.67 88.92C3239.27 88.92 3236.11 89.68 3234.19 91.2C3232.27 92.64 3231.15 95.16 3230.83 98.76H3215.95C3216.83 84.68 3226.11 77.64 3243.79 77.64C3260.99 77.64 3269.59 83.84 3269.59 96.24V129.24C3269.59 134.68 3270.43 138.6 3272.11 141ZM3238.99 131.64C3243.71 131.64 3247.55 130.36 3250.51 127.8C3253.47 125.16 3254.95 121.4 3254.95 116.52V110.88C3253.51 112.16 3251.15 113 3247.87 113.4L3239.71 114.36C3235.71 114.84 3232.83 115.8 3231.07 117.24C3229.39 118.6 3228.55 120.6 3228.55 123.24C3228.55 125.88 3229.43 127.96 3231.19 129.48C3233.03 130.92 3235.63 131.64 3238.99 131.64Z" fill="black"/>
</svg>
