<svg width="24" height="24" viewBox="0 0 24 25" fill="none" xmlns="http://www.w3.org/2000/svg">
<path d="M18.71 16.1381C12.2621 16.1381 8.16658 12.1402 8.16658 5.7288C8.16658 4.32707 8.49568 2.46216 8.93448 1.47486C9.08075 1.15795 9.11732 0.938548 9.11732 0.767903C9.11732 0.377857 8.83697 0 8.33723 0C8.15439 0 7.86186 0.0487557 7.55714 0.158456C3.02285 1.97461 0 6.76486 0 11.8476C0 19.0025 5.41188 24.1341 12.5424 24.1341C17.7105 24.1341 22.2326 21.0137 23.8294 16.9426C23.9634 16.6257 24 16.3088 24 16.1381C24 15.6628 23.6343 15.3459 23.2443 15.3459C23.0371 15.3459 22.8421 15.3946 22.5617 15.5165C21.6475 15.8334 20.1727 16.1381 18.71 16.1381Z" fill="#121212"/>
</svg>
