<svg width="24" height="24" viewBox="0 0 24 25" fill="none" xmlns="http://www.w3.org/2000/svg">
<path d="M12 2.96073C12.7657 2.96073 13.3998 2.32664 13.3998 1.56093C13.3998 0.79523 12.7657 0.161133 12 0.161133C11.2343 0.161133 10.6002 0.79523 10.6002 1.56093C10.6002 2.32664 11.2343 2.96073 12 2.96073ZM4.4985 6.05944C5.27617 6.05944 5.8983 5.42534 5.8983 4.65964C5.8983 3.89393 5.27617 3.25984 4.4985 3.25984C3.7328 3.25984 3.0987 3.89393 3.0987 4.65964C3.0987 5.42534 3.7328 6.05944 4.4985 6.05944ZM19.5015 6.05944C20.2672 6.05944 20.9013 5.42534 20.9013 4.65964C20.9013 3.89393 20.2672 3.25984 19.5015 3.25984C18.7358 3.25984 18.1017 3.89393 18.1017 4.65964C18.1017 5.42534 18.7358 6.05944 19.5015 6.05944ZM12 18.2509C15.326 18.2509 18.1017 15.4872 18.1017 12.1611C18.1017 8.82315 15.326 6.05944 12 6.05944C8.67398 6.05944 5.91027 8.82315 5.91027 12.1611C5.91027 15.4872 8.67398 18.2509 12 18.2509ZM1.3998 13.5609C2.1655 13.5609 2.7996 12.9268 2.7996 12.1611C2.7996 11.3835 2.1655 10.7613 1.3998 10.7613C0.634098 10.7613 0 11.3835 0 12.1611C0 12.9268 0.634098 13.5609 1.3998 13.5609ZM22.6002 13.5609C23.3659 13.5609 24 12.9268 24 12.1611C24 11.3835 23.3659 10.7613 22.6002 10.7613C21.8345 10.7613 21.2004 11.3835 21.2004 12.1611C21.2004 12.9268 21.8345 13.5609 22.6002 13.5609ZM19.5015 21.0624C20.2672 21.0624 20.9013 20.4283 20.9013 19.6626C20.9013 18.885 20.2672 18.2628 19.5015 18.2628C18.7358 18.2628 18.1017 18.885 18.1017 19.6626C18.1017 20.4283 18.7358 21.0624 19.5015 21.0624ZM4.4985 21.0624C5.27617 21.0624 5.8983 20.4283 5.8983 19.6626C5.8983 18.885 5.27617 18.2628 4.4985 18.2628C3.7328 18.2628 3.0987 18.885 3.0987 19.6626C3.0987 20.4283 3.7328 21.0624 4.4985 21.0624ZM12 24.1611C12.7657 24.1611 13.3998 23.527 13.3998 22.7613C13.3998 21.9837 12.7657 21.3615 12 21.3615C11.2343 21.3615 10.6002 21.9837 10.6002 22.7613C10.6002 23.527 11.2343 24.1611 12 24.1611Z" fill="white"/>
</svg>
