<svg width="15" height="12" viewBox="0 0 15 12" fill="none" xmlns="http://www.w3.org/2000/svg">
<path d="M14.303 6.35016C14.303 6.12541 14.211 5.90792 14.0483 5.74843L9.39967 0.985355C9.2157 0.804112 9.02467 0.724365 8.82655 0.724365C8.37372 0.724365 8.04825 1.0506 8.04825 1.49284C8.04825 1.72483 8.14023 1.92057 8.28174 2.06557L9.87373 3.7185L11.9256 5.63968L10.2841 5.53819H1.70859C1.23453 5.53819 0.909058 5.87167 0.909058 6.35016C0.909058 6.82139 1.23453 7.15488 1.70859 7.15488H10.2841L11.9256 7.05338L9.87373 8.97456L8.28174 10.6275C8.14023 10.7725 8.04825 10.9682 8.04825 11.2002C8.04825 11.6425 8.37372 11.9687 8.82655 11.9687C9.02467 11.9687 9.2157 11.8889 9.38552 11.7222L14.0483 6.94463C14.211 6.78514 14.303 6.56765 14.303 6.35016Z" fill="#027DFD"/>
</svg>
