<svg id="FOND" xmlns="http://www.w3.org/2000/svg" viewBox="0 0 270.85 128.62"><defs><style>.cls-1{fill:#fff;}</style></defs><rect class="cls-1" x="198.8" y="16.05" width="0.5" height="0.2"/><path class="cls-1" d="M50.13,36.14c0-.2,0-.41-.05-.61a18.45,18.45,0,0,0-1.67-6.17c-.06-.14-.13-.27-.2-.41a20.75,20.75,0,0,0-1.3-2.17s0,0,0,0a0,0,0,0,1,0,0l0,0A17,17,0,0,0,45.49,25a15.15,15.15,0,0,0-3.91-3.09l-.88-.45a14.23,14.23,0,0,0-1.85-.73,18.12,18.12,0,0,0-5-.82l-.94,0c-.25,0-.49,0-.74,0a17.9,17.9,0,0,0-4.92.82,15,15,0,0,0-1.86.73l-.88.45A15.15,15.15,0,0,0,20.65,25a17.7,17.7,0,0,0-4.59,10.52c0,.2,0,.41,0,.61,0,.73,0,1.28,0,1.73v.2c0,.43,0,1.24,0,1.75a.48.48,0,0,0,.48.45H49.64a.48.48,0,0,0,.48-.45c0-.51.05-1.32.05-1.75v-.2C50.17,37.42,50.16,36.87,50.13,36.14ZM23.9,34.45A9.63,9.63,0,0,1,27,28.58a8.87,8.87,0,0,1,1.27-.94A7.5,7.5,0,0,1,29.68,27,9.52,9.52,0,0,1,33,26.37h.2a9.88,9.88,0,0,1,3.3.59,7.5,7.5,0,0,1,1.43.68,7.58,7.58,0,0,1,1.27.94,9.63,9.63,0,0,1,3.08,5.87Z"/><path class="cls-1" d="M198.58,117.07h-7.35a.5.5,0,0,0-.43.25,8.84,8.84,0,0,1-1.61,2.09,9.41,9.41,0,0,1-12.6,0,8.84,8.84,0,0,1-1.61-2.09.5.5,0,0,0-.42-.25H167.2a.5.5,0,0,0-.47.66,16,16,0,0,0,5.68,7.68,16.83,16.83,0,0,0,10.31,3.24h.34a16.83,16.83,0,0,0,10.31-3.24,16.08,16.08,0,0,0,5.69-7.68A.51.51,0,0,0,198.58,117.07Z"/><path class="cls-1" d="M22.77,77a47.11,47.11,0,0,0-5.87-1.3,19.79,19.79,0,0,1-5-1.4,3,3,0,0,1-2-2.73,3.55,3.55,0,0,1,1.52-3.05,7.67,7.67,0,0,1,4.42-1.1,6.25,6.25,0,0,1,4.43,1.47A5.48,5.48,0,0,1,22,72a.47.47,0,0,0,.46.41H29.1a.5.5,0,0,0,.5-.55,12.53,12.53,0,0,0-.86-3.24,13.66,13.66,0,0,0-2.26-3.68A10.58,10.58,0,0,0,22.27,62,16.3,16.3,0,0,0,16,60.92q-6.22,0-10,3.17a9.71,9.71,0,0,0-3.77,7.7,9,9,0,0,0,2,6.22,9.93,9.93,0,0,0,5,3q2.92.76,5.87,1.23a19,19,0,0,1,5,1.44,3.14,3.14,0,0,1,2,3,3.27,3.27,0,0,1-1.67,2.88,8.86,8.86,0,0,1-4.73,1.07,8.78,8.78,0,0,1-5.4-1.47,5,5,0,0,1-2-3.4.54.54,0,0,0-.52-.48H1.18a.49.49,0,0,0-.48.53,12.18,12.18,0,0,0,3.85,8q3.61,3.34,10.75,3.35,6.94,0,10.71-3.08a9.56,9.56,0,0,0,3.77-7.74,9.11,9.11,0,0,0-2-6.2A10.16,10.16,0,0,0,22.77,77Z"/><path class="cls-1" d="M65.44,66.22a17.05,17.05,0,0,0-13-5.31,17,17,0,0,0-13,5.31,19,19,0,0,0,0,25.66,17,17,0,0,0,13,5.27q8.06,0,13-5.27a19,19,0,0,0,0-25.66Zm-5.8,20.86a9.42,9.42,0,0,1-7.23,3.06,9.36,9.36,0,0,1-7.18-3.06,11.37,11.37,0,0,1-2.84-8A11.43,11.43,0,0,1,45.23,71a9.36,9.36,0,0,1,7.18-3.06A9.42,9.42,0,0,1,59.64,71a11.43,11.43,0,0,1,2.84,8.08A11.37,11.37,0,0,1,59.64,87.08Z"/><path class="cls-1" d="M92.51,67.94a8.52,8.52,0,0,1,5.37,1.72,8.26,8.26,0,0,1,2.87,4.27.48.48,0,0,0,.45.35h7.35a.39.39,0,0,0,.37-.44A16,16,0,0,0,104,65c-2.83-2.68-6.63-4-11.38-4a16.21,16.21,0,0,0-12.41,5.24,18.29,18.29,0,0,0-4.88,12.91,18.21,18.21,0,0,0,4.88,12.85,16.21,16.21,0,0,0,12.41,5.24q7.13,0,11.38-4a16,16,0,0,0,5-8.86.38.38,0,0,0-.38-.45h-7.31a.47.47,0,0,0-.45.34,8.15,8.15,0,0,1-2.88,4.26,8.48,8.48,0,0,1-5.37,1.74,8.27,8.27,0,0,1-6.74-3.07,12.19,12.19,0,0,1-2.54-8,12.24,12.24,0,0,1,2.54-8A8.24,8.24,0,0,1,92.51,67.94Z"/><path class="cls-1" d="M122.87,66.06V61.4a.49.49,0,0,0-.48-.48H116a.48.48,0,0,0-.48.48V96.68a.48.48,0,0,0,.48.48h7a.49.49,0,0,0,.49-.48V77.87q0-9.6,8.94-9.61c.41,0,.83,0,1.27.07a.48.48,0,0,0,.53-.47V60.92h-1.14C128.22,60.92,124.83,62.64,122.87,66.06Z"/><path class="cls-1" d="M169,96.52a25,25,0,0,1-.91-6.78v-16c0-4.09-1.21-7.19-3.72-9.45s-6.25-3.41-11.18-3.41-8.57,1.1-11.05,3.3A12.53,12.53,0,0,0,138,72a.49.49,0,0,0,.49.55h6.92a.31.31,0,0,0,.31-.26c.65-3.24,3.07-4.87,7.29-4.87,4.93,0,7.36,2,7.36,6.26v.53l-10,1.41q-13.29,1.86-13.29,10.93a10,10,0,0,0,3,7.61c2,1.92,5.09,3,9.18,3,5.56,0,9.48-1.86,11.84-5.41,0,.84,0,1.64.11,2.4s.29,2.18.36,2.52.11.49.16.49h6.84A.47.47,0,0,0,169,96.52Zm-8.65-14.33a8.43,8.43,0,0,1-2.47,6.21q-2.47,2.47-7.07,2.47c-4.1,0-6.15-1.52-6.15-4.54,0-2.63,2.16-4.27,6.47-4.94l9.22-1.4Z"/><path class="cls-1" d="M185.8,67.26v18.9c0,2.66,1.25,4.11,3.73,4.17h2.13a.48.48,0,0,1,.48.48v5.87a.47.47,0,0,1-.48.48H188q-10.14,0-10.14-10.2V67.26h-4.8a.48.48,0,0,1-.48-.48V61.4a.49.49,0,0,1,.48-.48h4.8V53.85a.53.53,0,0,1,.53-.53h6.89a.53.53,0,0,1,.53.53v7.07h6a.48.48,0,0,1,.48.48v5.38a.47.47,0,0,1-.48.48Z"/><path class="cls-1" d="M199.94.65a.48.48,0,0,0-.48-.45H166.32a.48.48,0,0,0-.48.45c0,.51-.05,1.32-.05,1.75v.2c0,.45,0,1,0,1.73,0,.2,0,.41,0,.61a18.22,18.22,0,0,0,1.67,6.17l.2.41a18.71,18.71,0,0,0,1.32,2.19h0l0,0a17,17,0,0,0,1.37,1.7,15.15,15.15,0,0,0,3.91,3.09l.88.45a12.9,12.9,0,0,0,1.85.72,17.74,17.74,0,0,0,4.95.83l.94,0c.25,0,.49,0,.74,0a17.53,17.53,0,0,0,4.92-.83,13.5,13.5,0,0,0,1.86-.72l.88-.45a15.15,15.15,0,0,0,3.91-3.09A17.7,17.7,0,0,0,199.9,4.94c0-.2,0-.41,0-.61,0-.73,0-1.28,0-1.73V2.4C200,2,200,1.16,199.94.65ZM189,11.89a8.87,8.87,0,0,1-1.27.94,7.5,7.5,0,0,1-1.43.68,9.52,9.52,0,0,1-3.28.59h-.2a9.88,9.88,0,0,1-3.3-.59,7.5,7.5,0,0,1-1.43-.68,7.58,7.58,0,0,1-1.27-.94A9.66,9.66,0,0,1,173.72,6h18.34A9.66,9.66,0,0,1,189,11.89Z"/><path class="cls-1" d="M229.59,77.16c0-.2,0-.41-.05-.61a18.16,18.16,0,0,0-1.67-6.17c-.06-.14-.13-.28-.2-.42a20.61,20.61,0,0,0-1.3-2.16l0,0h0l0,0A15.68,15.68,0,0,0,225,66,14.94,14.94,0,0,0,221,62.94c-.29-.16-.59-.31-.88-.45a14.67,14.67,0,0,0-1.84-.73,18.26,18.26,0,0,0-5-.82l-.94,0c-.25,0-.49,0-.74,0a17.9,17.9,0,0,0-4.92.82,15.59,15.59,0,0,0-1.86.73c-.29.14-.59.29-.88.45A15.1,15.1,0,0,0,200.11,66a17.65,17.65,0,0,0-4.59,10.52c0,.2,0,.41-.05.61,0,.73,0,1.28,0,1.72v.2c0,.44,0,1.24.06,1.76a.47.47,0,0,0,.47.45H229.1a.47.47,0,0,0,.48-.45c0-.52.06-1.32.06-1.76v-.2C229.64,78.44,229.62,77.89,229.59,77.16Zm-26.22-1.69a9.59,9.59,0,0,1,3.07-5.87,8.17,8.17,0,0,1,1.27-.94,7.5,7.5,0,0,1,1.43-.68,9.52,9.52,0,0,1,3.28-.59h.2a9.88,9.88,0,0,1,3.3.59,7.22,7.22,0,0,1,1.43.68,7.58,7.58,0,0,1,1.27.94,9.55,9.55,0,0,1,3.08,5.87Z"/><path class="cls-1" d="M228.23,85.58h-7.37a.49.49,0,0,0-.43.26,9.08,9.08,0,0,1-15.82,0,.49.49,0,0,0-.43-.26h-7.37a.49.49,0,0,0-.46.65A16,16,0,0,0,202,93.92a16.83,16.83,0,0,0,10.31,3.24h.34A16.83,16.83,0,0,0,223,93.92a16,16,0,0,0,5.69-7.69A.49.49,0,0,0,228.23,85.58Z"/><path class="cls-1" d="M238.7,111h-4.95V99.78h4.74a4,4,0,0,1,2.79.87,2.86,2.86,0,0,1,.95,2.22,2.7,2.7,0,0,1-.42,1.51,2.66,2.66,0,0,1-1.15,1,2.68,2.68,0,0,1,1.26,1,2.54,2.54,0,0,1,.46,1.53,3,3,0,0,1-.95,2.34A4,4,0,0,1,238.7,111Zm-.22-9.15H236v2.43h2.49a1.58,1.58,0,0,0,1.05-.31,1.09,1.09,0,0,0,.37-.91,1.14,1.14,0,0,0-.36-.87A1.45,1.45,0,0,0,238.48,101.86Zm.16,4.52H236v2.56h2.65c.94,0,1.42-.42,1.42-1.28a1.23,1.23,0,0,0-.36-.93A1.46,1.46,0,0,0,238.64,106.38Z"/><path class="cls-1" d="M251.83,107.52h-6a1.94,1.94,0,0,0,.63,1.3,2,2,0,0,0,1.37.45,2,2,0,0,0,1-.23,1.27,1.27,0,0,0,.62-.67h2.26a3.73,3.73,0,0,1-1.43,2,4.1,4.1,0,0,1-2.49.78,4,4,0,0,1-3-1.21,4.36,4.36,0,0,1-1.17-3.14,4.3,4.3,0,0,1,1.17-3.08,3.94,3.94,0,0,1,3-1.23,3.88,3.88,0,0,1,3,1.22,4.33,4.33,0,0,1,1.15,3.09Zm-4.1-3.18a1.85,1.85,0,0,0-1.25.42,1.9,1.9,0,0,0-.63,1.15h3.76a1.84,1.84,0,0,0-.62-1.14A1.8,1.8,0,0,0,247.73,104.34Z"/><path class="cls-1" d="M257.27,109v2a4.9,4.9,0,0,1-1.06.09,2.24,2.24,0,0,1-2.55-2.53v-4h-1.12v-1.77h1.12v-2.06h2.25v2.06h1.37v1.77h-1.37v3.79a.73.73,0,0,0,.83.81Z"/><path class="cls-1" d="M261.14,111.2a3.09,3.09,0,0,1-2.15-.69,2.38,2.38,0,0,1-.76-1.85,2.14,2.14,0,0,1,.78-1.74,5.07,5.07,0,0,1,2.43-.9l2.22-.34v-.08c0-.81-.5-1.21-1.49-1.21s-1.44.34-1.54,1h-2.21a3,3,0,0,1,1-2,3.92,3.92,0,0,1,2.72-.82,4,4,0,0,1,2.72.8,2.89,2.89,0,0,1,.92,2.28v3.91A3.78,3.78,0,0,0,266,111h-2.17s0,0,0-.11,0-.18,0-.34a3.54,3.54,0,0,1,0-.46A3,3,0,0,1,261.14,111.2Zm2.52-3.92-2,.33c-.84.15-1.26.48-1.26,1s.41.87,1.25.87a2,2,0,0,0,1.48-.5,1.8,1.8,0,0,0,.53-1.35Z"/></svg>